G04 #@! TF.GenerationSoftware,KiCad,Pcbnew,7.0.11+dfsg-1build4*
G04 #@! TF.CreationDate,2025-06-10T17:17:13-04:00*
G04 #@! TF.ProjectId,comm-interface,636f6d6d-2d69-46e7-9465-72666163652e,rev?*
G04 #@! TF.SameCoordinates,Original*
G04 #@! TF.FileFunction,Legend,Bot*
G04 #@! TF.FilePolarity,Positive*
%FSLAX46Y46*%
G04 Gerber Fmt 4.6, Leading zero omitted, Abs format (unit mm)*
G04 Created by KiCad (PCBNEW 7.0.11+dfsg-1build4) date 2025-06-10 17:17:13*
%MOMM*%
%LPD*%
G01*
G04 APERTURE LIST*
%ADD10O,3.500000X3.500000*%
%ADD11R,2.000000X1.905000*%
%ADD12O,2.000000X1.905000*%
%ADD13R,1.200000X1.200000*%
%ADD14C,1.200000*%
%ADD15C,1.800000*%
%ADD16C,1.300000*%
%ADD17C,1.600000*%
%ADD18O,1.600000X1.600000*%
%ADD19R,1.700000X1.700000*%
%ADD20O,1.700000X1.700000*%
%ADD21R,1.600000X1.600000*%
%ADD22C,2.100000*%
%ADD23C,1.750000*%
%ADD24C,4.000000*%
G04 APERTURE END LIST*
%LPC*%
D10*
X124340000Y-64460000D03*
D11*
X141000000Y-67000000D03*
D12*
X141000000Y-64460000D03*
X141000000Y-61920000D03*
D13*
X137200000Y-91000000D03*
D14*
X135200000Y-91000000D03*
D13*
X135400000Y-77000000D03*
D14*
X137400000Y-77000000D03*
D13*
X118000000Y-84000000D03*
D14*
X118000000Y-86000000D03*
D13*
X118000000Y-76000000D03*
D14*
X118000000Y-78000000D03*
D15*
X126900000Y-53750000D03*
X139100000Y-53750000D03*
D16*
X129000000Y-55000000D03*
X131000000Y-55000000D03*
X133000000Y-55000000D03*
X137000000Y-55000000D03*
X129000000Y-52500000D03*
X131000000Y-52500000D03*
X133000000Y-52500000D03*
X137000000Y-52500000D03*
D17*
X182000000Y-80840000D03*
D18*
X182000000Y-91000000D03*
D17*
X194000000Y-91000000D03*
D18*
X194000000Y-80840000D03*
D19*
X194818000Y-56896000D03*
D20*
X194818000Y-59436000D03*
X194818000Y-61976000D03*
X194818000Y-64516000D03*
X194818000Y-67056000D03*
X194818000Y-69596000D03*
D17*
X159000000Y-68000000D03*
X156500000Y-68000000D03*
D21*
X147000000Y-68000000D03*
D17*
X147000000Y-65500000D03*
X185000000Y-91000000D03*
D18*
X185000000Y-80840000D03*
D17*
X188000000Y-91000000D03*
D18*
X188000000Y-80840000D03*
D19*
X175000000Y-62000000D03*
D20*
X177540000Y-62000000D03*
X175000000Y-59460000D03*
X177540000Y-59460000D03*
X175000000Y-56920000D03*
X177540000Y-56920000D03*
X175000000Y-54380000D03*
X177540000Y-54380000D03*
D22*
X112694831Y-59826560D03*
X117651650Y-54869742D03*
D23*
X111818019Y-57181981D03*
X115000000Y-54000000D03*
D21*
X154000000Y-72000000D03*
D18*
X154000000Y-74540000D03*
X154000000Y-77080000D03*
X154000000Y-79620000D03*
X154000000Y-82160000D03*
X154000000Y-84700000D03*
X154000000Y-87240000D03*
X154000000Y-89780000D03*
X161620000Y-89780000D03*
X161620000Y-87240000D03*
X161620000Y-84700000D03*
X161620000Y-82160000D03*
X161620000Y-79620000D03*
X161620000Y-77080000D03*
X161620000Y-74540000D03*
X161620000Y-72000000D03*
D17*
X170080000Y-54000000D03*
D18*
X159920000Y-54000000D03*
D17*
X170080000Y-57000000D03*
D18*
X159920000Y-57000000D03*
D21*
X147000000Y-59000000D03*
D17*
X147000000Y-61500000D03*
D24*
X109010331Y-67927000D03*
X109010331Y-92927000D03*
D21*
X110430331Y-85967000D03*
D17*
X110430331Y-83197000D03*
X110430331Y-80427000D03*
X110430331Y-77657000D03*
X110430331Y-74887000D03*
X107590331Y-84582000D03*
X107590331Y-81812000D03*
X107590331Y-79042000D03*
X107590331Y-76272000D03*
X182000000Y-53000000D03*
D18*
X182000000Y-63160000D03*
D17*
X128500000Y-72000000D03*
X126000000Y-72000000D03*
D21*
X135000000Y-84000000D03*
D17*
X137500000Y-84000000D03*
X173000000Y-68000000D03*
X170500000Y-68000000D03*
X191000000Y-91000000D03*
D18*
X191000000Y-80840000D03*
D19*
X194000000Y-75946000D03*
D20*
X191460000Y-75946000D03*
D19*
X101803420Y-98248360D03*
D20*
X104343420Y-98248360D03*
X106883420Y-98248360D03*
X109423420Y-98248360D03*
X111963420Y-98248360D03*
X114503420Y-98248360D03*
X117043420Y-98248360D03*
X119583420Y-98248360D03*
X122123420Y-98248360D03*
X124663420Y-98248360D03*
X127203420Y-98248360D03*
X129743420Y-98248360D03*
X132283420Y-98248360D03*
X134823420Y-98248360D03*
X137363420Y-98248360D03*
X139903420Y-98248360D03*
X142443420Y-98248360D03*
X144983420Y-98248360D03*
X147523420Y-98248360D03*
X150063420Y-98248360D03*
X152603420Y-98248360D03*
X155143420Y-98248360D03*
X157683420Y-98248360D03*
X160223420Y-98248360D03*
X162763420Y-98248360D03*
X165303420Y-98248360D03*
X167843420Y-98248360D03*
X170383420Y-98248360D03*
X172923420Y-98248360D03*
X175463420Y-98248360D03*
X178003420Y-98248360D03*
X180543420Y-98248360D03*
X183083420Y-98248360D03*
X185623420Y-98248360D03*
X188163420Y-98248360D03*
X190703420Y-98248360D03*
X193243420Y-98248360D03*
X195783420Y-98248360D03*
X198323420Y-98248360D03*
D17*
X197000000Y-91000000D03*
D18*
X197000000Y-80840000D03*
D17*
X185000000Y-63160000D03*
D18*
X185000000Y-53000000D03*
D19*
X142443420Y-95708360D03*
D20*
X144983420Y-95708360D03*
X147523420Y-95708360D03*
X150063420Y-95708360D03*
X152603420Y-95708360D03*
X155143420Y-95708360D03*
X157683420Y-95708360D03*
X160223420Y-95708360D03*
X162763420Y-95708360D03*
X165303420Y-95708360D03*
X167843420Y-95708360D03*
X170383420Y-95708360D03*
X172923420Y-95708360D03*
X175463420Y-95708360D03*
X178003420Y-95708360D03*
X180543420Y-95708360D03*
X183083420Y-95708360D03*
X185623420Y-95708360D03*
X188163420Y-95708360D03*
X190703420Y-95708360D03*
D21*
X168000000Y-72000000D03*
D18*
X168000000Y-74540000D03*
X168000000Y-77080000D03*
X168000000Y-79620000D03*
X168000000Y-82160000D03*
X168000000Y-84700000D03*
X168000000Y-87240000D03*
X168000000Y-89780000D03*
X175620000Y-89780000D03*
X175620000Y-87240000D03*
X175620000Y-84700000D03*
X175620000Y-82160000D03*
X175620000Y-79620000D03*
X175620000Y-77080000D03*
X175620000Y-74540000D03*
X175620000Y-72000000D03*
D21*
X123380000Y-75920000D03*
D18*
X123380000Y-78460000D03*
X123380000Y-81000000D03*
X123380000Y-83540000D03*
X123380000Y-86080000D03*
X123380000Y-88620000D03*
X123380000Y-91160000D03*
X123380000Y-93700000D03*
X131000000Y-93700000D03*
X131000000Y-91160000D03*
X131000000Y-88620000D03*
X131000000Y-86080000D03*
X131000000Y-83540000D03*
X131000000Y-81000000D03*
X131000000Y-78460000D03*
X131000000Y-75920000D03*
%LPD*%
M02*
