%TF.GenerationSoftware,KiCad,Pcbnew,7.0.11+dfsg-1build4*%
%TF.CreationDate,2025-06-10T17:17:53-04:00*%
%TF.ProjectId,comm-interface,636f6d6d-2d69-46e7-9465-72666163652e,rev?*%
%TF.SameCoordinates,Original*%
%TF.FileFunction,Drillmap*%
%TF.FilePolarity,Positive*%
%FSLAX45Y45*%
G04 Gerber Fmt 4.5, Leading zero omitted, Abs format (unit mm)*
G04 Created by KiCad (PCBNEW 7.0.11+dfsg-1build4) date 2025-06-10 17:17:53*
%MOMM*%
%LPD*%
G01*
G04 APERTURE LIST*
%ADD10C,0.150000*%
%ADD11C,0.200000*%
%ADD12C,0.350000*%
G04 APERTURE END LIST*
D10*
X10000000Y-6515120D02*
X10000000Y-10000000D01*
X19909980Y-5531980D02*
G75*
G03*
X19391980Y-5013980I-518000J0D01*
G01*
X19910140Y-5531980D02*
X19910140Y-10000000D01*
X19391980Y-5013980D02*
X11501140Y-5013980D01*
X10000000Y-10000000D02*
X19910140Y-10000000D01*
X11501140Y-5013980D02*
X10000000Y-6515120D01*
D11*
D12*
X12259000Y-6271000D02*
X12609000Y-6621000D01*
X12609000Y-6271000D02*
X12259000Y-6621000D01*
D11*
X10253277Y-10318984D02*
X10253277Y-10118984D01*
X10253277Y-10118984D02*
X10300896Y-10118984D01*
X10300896Y-10118984D02*
X10329467Y-10128508D01*
X10329467Y-10128508D02*
X10348515Y-10147555D01*
X10348515Y-10147555D02*
X10358039Y-10166603D01*
X10358039Y-10166603D02*
X10367563Y-10204698D01*
X10367563Y-10204698D02*
X10367563Y-10233270D01*
X10367563Y-10233270D02*
X10358039Y-10271365D01*
X10358039Y-10271365D02*
X10348515Y-10290412D01*
X10348515Y-10290412D02*
X10329467Y-10309460D01*
X10329467Y-10309460D02*
X10300896Y-10318984D01*
X10300896Y-10318984D02*
X10253277Y-10318984D01*
X10453277Y-10318984D02*
X10453277Y-10185650D01*
X10453277Y-10223746D02*
X10462801Y-10204698D01*
X10462801Y-10204698D02*
X10472324Y-10195174D01*
X10472324Y-10195174D02*
X10491372Y-10185650D01*
X10491372Y-10185650D02*
X10510420Y-10185650D01*
X10577086Y-10318984D02*
X10577086Y-10185650D01*
X10577086Y-10118984D02*
X10567563Y-10128508D01*
X10567563Y-10128508D02*
X10577086Y-10138031D01*
X10577086Y-10138031D02*
X10586610Y-10128508D01*
X10586610Y-10128508D02*
X10577086Y-10118984D01*
X10577086Y-10118984D02*
X10577086Y-10138031D01*
X10700896Y-10318984D02*
X10681848Y-10309460D01*
X10681848Y-10309460D02*
X10672324Y-10290412D01*
X10672324Y-10290412D02*
X10672324Y-10118984D01*
X10805658Y-10318984D02*
X10786610Y-10309460D01*
X10786610Y-10309460D02*
X10777086Y-10290412D01*
X10777086Y-10290412D02*
X10777086Y-10118984D01*
X11034229Y-10318984D02*
X11034229Y-10118984D01*
X11034229Y-10118984D02*
X11100896Y-10261841D01*
X11100896Y-10261841D02*
X11167563Y-10118984D01*
X11167563Y-10118984D02*
X11167563Y-10318984D01*
X11348515Y-10318984D02*
X11348515Y-10214222D01*
X11348515Y-10214222D02*
X11338991Y-10195174D01*
X11338991Y-10195174D02*
X11319943Y-10185650D01*
X11319943Y-10185650D02*
X11281848Y-10185650D01*
X11281848Y-10185650D02*
X11262801Y-10195174D01*
X11348515Y-10309460D02*
X11329467Y-10318984D01*
X11329467Y-10318984D02*
X11281848Y-10318984D01*
X11281848Y-10318984D02*
X11262801Y-10309460D01*
X11262801Y-10309460D02*
X11253277Y-10290412D01*
X11253277Y-10290412D02*
X11253277Y-10271365D01*
X11253277Y-10271365D02*
X11262801Y-10252317D01*
X11262801Y-10252317D02*
X11281848Y-10242793D01*
X11281848Y-10242793D02*
X11329467Y-10242793D01*
X11329467Y-10242793D02*
X11348515Y-10233270D01*
X11443753Y-10185650D02*
X11443753Y-10385650D01*
X11443753Y-10195174D02*
X11462801Y-10185650D01*
X11462801Y-10185650D02*
X11500896Y-10185650D01*
X11500896Y-10185650D02*
X11519943Y-10195174D01*
X11519943Y-10195174D02*
X11529467Y-10204698D01*
X11529467Y-10204698D02*
X11538991Y-10223746D01*
X11538991Y-10223746D02*
X11538991Y-10280889D01*
X11538991Y-10280889D02*
X11529467Y-10299936D01*
X11529467Y-10299936D02*
X11519943Y-10309460D01*
X11519943Y-10309460D02*
X11500896Y-10318984D01*
X11500896Y-10318984D02*
X11462801Y-10318984D01*
X11462801Y-10318984D02*
X11443753Y-10309460D01*
X11624705Y-10299936D02*
X11634229Y-10309460D01*
X11634229Y-10309460D02*
X11624705Y-10318984D01*
X11624705Y-10318984D02*
X11615182Y-10309460D01*
X11615182Y-10309460D02*
X11624705Y-10299936D01*
X11624705Y-10299936D02*
X11624705Y-10318984D01*
X11624705Y-10195174D02*
X11634229Y-10204698D01*
X11634229Y-10204698D02*
X11624705Y-10214222D01*
X11624705Y-10214222D02*
X11615182Y-10204698D01*
X11615182Y-10204698D02*
X11624705Y-10195174D01*
X11624705Y-10195174D02*
X11624705Y-10214222D01*
X9792500Y-10547500D02*
X9992500Y-10747500D01*
X9992500Y-10547500D02*
X9792500Y-10747500D01*
X10234229Y-10538984D02*
X10358039Y-10538984D01*
X10358039Y-10538984D02*
X10291372Y-10615174D01*
X10291372Y-10615174D02*
X10319944Y-10615174D01*
X10319944Y-10615174D02*
X10338991Y-10624698D01*
X10338991Y-10624698D02*
X10348515Y-10634222D01*
X10348515Y-10634222D02*
X10358039Y-10653270D01*
X10358039Y-10653270D02*
X10358039Y-10700889D01*
X10358039Y-10700889D02*
X10348515Y-10719936D01*
X10348515Y-10719936D02*
X10338991Y-10729460D01*
X10338991Y-10729460D02*
X10319944Y-10738984D01*
X10319944Y-10738984D02*
X10262801Y-10738984D01*
X10262801Y-10738984D02*
X10243753Y-10729460D01*
X10243753Y-10729460D02*
X10234229Y-10719936D01*
X10443753Y-10719936D02*
X10453277Y-10729460D01*
X10453277Y-10729460D02*
X10443753Y-10738984D01*
X10443753Y-10738984D02*
X10434229Y-10729460D01*
X10434229Y-10729460D02*
X10443753Y-10719936D01*
X10443753Y-10719936D02*
X10443753Y-10738984D01*
X10634229Y-10538984D02*
X10538991Y-10538984D01*
X10538991Y-10538984D02*
X10529467Y-10634222D01*
X10529467Y-10634222D02*
X10538991Y-10624698D01*
X10538991Y-10624698D02*
X10558039Y-10615174D01*
X10558039Y-10615174D02*
X10605658Y-10615174D01*
X10605658Y-10615174D02*
X10624705Y-10624698D01*
X10624705Y-10624698D02*
X10634229Y-10634222D01*
X10634229Y-10634222D02*
X10643753Y-10653270D01*
X10643753Y-10653270D02*
X10643753Y-10700889D01*
X10643753Y-10700889D02*
X10634229Y-10719936D01*
X10634229Y-10719936D02*
X10624705Y-10729460D01*
X10624705Y-10729460D02*
X10605658Y-10738984D01*
X10605658Y-10738984D02*
X10558039Y-10738984D01*
X10558039Y-10738984D02*
X10538991Y-10729460D01*
X10538991Y-10729460D02*
X10529467Y-10719936D01*
X10767563Y-10538984D02*
X10786610Y-10538984D01*
X10786610Y-10538984D02*
X10805658Y-10548508D01*
X10805658Y-10548508D02*
X10815182Y-10558031D01*
X10815182Y-10558031D02*
X10824705Y-10577079D01*
X10824705Y-10577079D02*
X10834229Y-10615174D01*
X10834229Y-10615174D02*
X10834229Y-10662793D01*
X10834229Y-10662793D02*
X10824705Y-10700889D01*
X10824705Y-10700889D02*
X10815182Y-10719936D01*
X10815182Y-10719936D02*
X10805658Y-10729460D01*
X10805658Y-10729460D02*
X10786610Y-10738984D01*
X10786610Y-10738984D02*
X10767563Y-10738984D01*
X10767563Y-10738984D02*
X10748515Y-10729460D01*
X10748515Y-10729460D02*
X10738991Y-10719936D01*
X10738991Y-10719936D02*
X10729467Y-10700889D01*
X10729467Y-10700889D02*
X10719944Y-10662793D01*
X10719944Y-10662793D02*
X10719944Y-10615174D01*
X10719944Y-10615174D02*
X10729467Y-10577079D01*
X10729467Y-10577079D02*
X10738991Y-10558031D01*
X10738991Y-10558031D02*
X10748515Y-10548508D01*
X10748515Y-10548508D02*
X10767563Y-10538984D01*
X10958039Y-10538984D02*
X10977086Y-10538984D01*
X10977086Y-10538984D02*
X10996134Y-10548508D01*
X10996134Y-10548508D02*
X11005658Y-10558031D01*
X11005658Y-10558031D02*
X11015182Y-10577079D01*
X11015182Y-10577079D02*
X11024705Y-10615174D01*
X11024705Y-10615174D02*
X11024705Y-10662793D01*
X11024705Y-10662793D02*
X11015182Y-10700889D01*
X11015182Y-10700889D02*
X11005658Y-10719936D01*
X11005658Y-10719936D02*
X10996134Y-10729460D01*
X10996134Y-10729460D02*
X10977086Y-10738984D01*
X10977086Y-10738984D02*
X10958039Y-10738984D01*
X10958039Y-10738984D02*
X10938991Y-10729460D01*
X10938991Y-10729460D02*
X10929467Y-10719936D01*
X10929467Y-10719936D02*
X10919944Y-10700889D01*
X10919944Y-10700889D02*
X10910420Y-10662793D01*
X10910420Y-10662793D02*
X10910420Y-10615174D01*
X10910420Y-10615174D02*
X10919944Y-10577079D01*
X10919944Y-10577079D02*
X10929467Y-10558031D01*
X10929467Y-10558031D02*
X10938991Y-10548508D01*
X10938991Y-10548508D02*
X10958039Y-10538984D01*
X11110420Y-10738984D02*
X11110420Y-10605650D01*
X11110420Y-10624698D02*
X11119944Y-10615174D01*
X11119944Y-10615174D02*
X11138991Y-10605650D01*
X11138991Y-10605650D02*
X11167563Y-10605650D01*
X11167563Y-10605650D02*
X11186610Y-10615174D01*
X11186610Y-10615174D02*
X11196134Y-10634222D01*
X11196134Y-10634222D02*
X11196134Y-10738984D01*
X11196134Y-10634222D02*
X11205658Y-10615174D01*
X11205658Y-10615174D02*
X11224705Y-10605650D01*
X11224705Y-10605650D02*
X11253277Y-10605650D01*
X11253277Y-10605650D02*
X11272324Y-10615174D01*
X11272324Y-10615174D02*
X11281848Y-10634222D01*
X11281848Y-10634222D02*
X11281848Y-10738984D01*
X11377086Y-10738984D02*
X11377086Y-10605650D01*
X11377086Y-10624698D02*
X11386610Y-10615174D01*
X11386610Y-10615174D02*
X11405658Y-10605650D01*
X11405658Y-10605650D02*
X11434229Y-10605650D01*
X11434229Y-10605650D02*
X11453277Y-10615174D01*
X11453277Y-10615174D02*
X11462801Y-10634222D01*
X11462801Y-10634222D02*
X11462801Y-10738984D01*
X11462801Y-10634222D02*
X11472324Y-10615174D01*
X11472324Y-10615174D02*
X11491372Y-10605650D01*
X11491372Y-10605650D02*
X11519943Y-10605650D01*
X11519943Y-10605650D02*
X11538991Y-10615174D01*
X11538991Y-10615174D02*
X11548515Y-10634222D01*
X11548515Y-10634222D02*
X11548515Y-10738984D01*
X11938991Y-10529460D02*
X11767563Y-10786603D01*
X12196134Y-10538984D02*
X12215182Y-10538984D01*
X12215182Y-10538984D02*
X12234229Y-10548508D01*
X12234229Y-10548508D02*
X12243753Y-10558031D01*
X12243753Y-10558031D02*
X12253277Y-10577079D01*
X12253277Y-10577079D02*
X12262801Y-10615174D01*
X12262801Y-10615174D02*
X12262801Y-10662793D01*
X12262801Y-10662793D02*
X12253277Y-10700889D01*
X12253277Y-10700889D02*
X12243753Y-10719936D01*
X12243753Y-10719936D02*
X12234229Y-10729460D01*
X12234229Y-10729460D02*
X12215182Y-10738984D01*
X12215182Y-10738984D02*
X12196134Y-10738984D01*
X12196134Y-10738984D02*
X12177086Y-10729460D01*
X12177086Y-10729460D02*
X12167563Y-10719936D01*
X12167563Y-10719936D02*
X12158039Y-10700889D01*
X12158039Y-10700889D02*
X12148515Y-10662793D01*
X12148515Y-10662793D02*
X12148515Y-10615174D01*
X12148515Y-10615174D02*
X12158039Y-10577079D01*
X12158039Y-10577079D02*
X12167563Y-10558031D01*
X12167563Y-10558031D02*
X12177086Y-10548508D01*
X12177086Y-10548508D02*
X12196134Y-10538984D01*
X12348515Y-10719936D02*
X12358039Y-10729460D01*
X12358039Y-10729460D02*
X12348515Y-10738984D01*
X12348515Y-10738984D02*
X12338991Y-10729460D01*
X12338991Y-10729460D02*
X12348515Y-10719936D01*
X12348515Y-10719936D02*
X12348515Y-10738984D01*
X12548515Y-10738984D02*
X12434229Y-10738984D01*
X12491372Y-10738984D02*
X12491372Y-10538984D01*
X12491372Y-10538984D02*
X12472325Y-10567555D01*
X12472325Y-10567555D02*
X12453277Y-10586603D01*
X12453277Y-10586603D02*
X12434229Y-10596127D01*
X12615182Y-10538984D02*
X12738991Y-10538984D01*
X12738991Y-10538984D02*
X12672325Y-10615174D01*
X12672325Y-10615174D02*
X12700896Y-10615174D01*
X12700896Y-10615174D02*
X12719944Y-10624698D01*
X12719944Y-10624698D02*
X12729467Y-10634222D01*
X12729467Y-10634222D02*
X12738991Y-10653270D01*
X12738991Y-10653270D02*
X12738991Y-10700889D01*
X12738991Y-10700889D02*
X12729467Y-10719936D01*
X12729467Y-10719936D02*
X12719944Y-10729460D01*
X12719944Y-10729460D02*
X12700896Y-10738984D01*
X12700896Y-10738984D02*
X12643753Y-10738984D01*
X12643753Y-10738984D02*
X12624706Y-10729460D01*
X12624706Y-10729460D02*
X12615182Y-10719936D01*
X12805658Y-10538984D02*
X12938991Y-10538984D01*
X12938991Y-10538984D02*
X12853277Y-10738984D01*
X13043753Y-10624698D02*
X13024706Y-10615174D01*
X13024706Y-10615174D02*
X13015182Y-10605650D01*
X13015182Y-10605650D02*
X13005658Y-10586603D01*
X13005658Y-10586603D02*
X13005658Y-10577079D01*
X13005658Y-10577079D02*
X13015182Y-10558031D01*
X13015182Y-10558031D02*
X13024706Y-10548508D01*
X13024706Y-10548508D02*
X13043753Y-10538984D01*
X13043753Y-10538984D02*
X13081848Y-10538984D01*
X13081848Y-10538984D02*
X13100896Y-10548508D01*
X13100896Y-10548508D02*
X13110420Y-10558031D01*
X13110420Y-10558031D02*
X13119944Y-10577079D01*
X13119944Y-10577079D02*
X13119944Y-10586603D01*
X13119944Y-10586603D02*
X13110420Y-10605650D01*
X13110420Y-10605650D02*
X13100896Y-10615174D01*
X13100896Y-10615174D02*
X13081848Y-10624698D01*
X13081848Y-10624698D02*
X13043753Y-10624698D01*
X13043753Y-10624698D02*
X13024706Y-10634222D01*
X13024706Y-10634222D02*
X13015182Y-10643746D01*
X13015182Y-10643746D02*
X13005658Y-10662793D01*
X13005658Y-10662793D02*
X13005658Y-10700889D01*
X13005658Y-10700889D02*
X13015182Y-10719936D01*
X13015182Y-10719936D02*
X13024706Y-10729460D01*
X13024706Y-10729460D02*
X13043753Y-10738984D01*
X13043753Y-10738984D02*
X13081848Y-10738984D01*
X13081848Y-10738984D02*
X13100896Y-10729460D01*
X13100896Y-10729460D02*
X13110420Y-10719936D01*
X13110420Y-10719936D02*
X13119944Y-10700889D01*
X13119944Y-10700889D02*
X13119944Y-10662793D01*
X13119944Y-10662793D02*
X13110420Y-10643746D01*
X13110420Y-10643746D02*
X13100896Y-10634222D01*
X13100896Y-10634222D02*
X13081848Y-10624698D01*
X13196134Y-10538984D02*
X13196134Y-10577079D01*
X13272325Y-10538984D02*
X13272325Y-10577079D01*
X13567563Y-10815174D02*
X13558039Y-10805650D01*
X13558039Y-10805650D02*
X13538991Y-10777079D01*
X13538991Y-10777079D02*
X13529468Y-10758031D01*
X13529468Y-10758031D02*
X13519944Y-10729460D01*
X13519944Y-10729460D02*
X13510420Y-10681841D01*
X13510420Y-10681841D02*
X13510420Y-10643746D01*
X13510420Y-10643746D02*
X13519944Y-10596127D01*
X13519944Y-10596127D02*
X13529468Y-10567555D01*
X13529468Y-10567555D02*
X13538991Y-10548508D01*
X13538991Y-10548508D02*
X13558039Y-10519936D01*
X13558039Y-10519936D02*
X13567563Y-10510412D01*
X13748515Y-10738984D02*
X13634229Y-10738984D01*
X13691372Y-10738984D02*
X13691372Y-10538984D01*
X13691372Y-10538984D02*
X13672325Y-10567555D01*
X13672325Y-10567555D02*
X13653277Y-10586603D01*
X13653277Y-10586603D02*
X13634229Y-10596127D01*
X13986610Y-10738984D02*
X13986610Y-10538984D01*
X14072325Y-10738984D02*
X14072325Y-10634222D01*
X14072325Y-10634222D02*
X14062801Y-10615174D01*
X14062801Y-10615174D02*
X14043753Y-10605650D01*
X14043753Y-10605650D02*
X14015182Y-10605650D01*
X14015182Y-10605650D02*
X13996134Y-10615174D01*
X13996134Y-10615174D02*
X13986610Y-10624698D01*
X14196134Y-10738984D02*
X14177087Y-10729460D01*
X14177087Y-10729460D02*
X14167563Y-10719936D01*
X14167563Y-10719936D02*
X14158039Y-10700889D01*
X14158039Y-10700889D02*
X14158039Y-10643746D01*
X14158039Y-10643746D02*
X14167563Y-10624698D01*
X14167563Y-10624698D02*
X14177087Y-10615174D01*
X14177087Y-10615174D02*
X14196134Y-10605650D01*
X14196134Y-10605650D02*
X14224706Y-10605650D01*
X14224706Y-10605650D02*
X14243753Y-10615174D01*
X14243753Y-10615174D02*
X14253277Y-10624698D01*
X14253277Y-10624698D02*
X14262801Y-10643746D01*
X14262801Y-10643746D02*
X14262801Y-10700889D01*
X14262801Y-10700889D02*
X14253277Y-10719936D01*
X14253277Y-10719936D02*
X14243753Y-10729460D01*
X14243753Y-10729460D02*
X14224706Y-10738984D01*
X14224706Y-10738984D02*
X14196134Y-10738984D01*
X14377087Y-10738984D02*
X14358039Y-10729460D01*
X14358039Y-10729460D02*
X14348515Y-10710412D01*
X14348515Y-10710412D02*
X14348515Y-10538984D01*
X14529468Y-10729460D02*
X14510420Y-10738984D01*
X14510420Y-10738984D02*
X14472325Y-10738984D01*
X14472325Y-10738984D02*
X14453277Y-10729460D01*
X14453277Y-10729460D02*
X14443753Y-10710412D01*
X14443753Y-10710412D02*
X14443753Y-10634222D01*
X14443753Y-10634222D02*
X14453277Y-10615174D01*
X14453277Y-10615174D02*
X14472325Y-10605650D01*
X14472325Y-10605650D02*
X14510420Y-10605650D01*
X14510420Y-10605650D02*
X14529468Y-10615174D01*
X14529468Y-10615174D02*
X14538991Y-10634222D01*
X14538991Y-10634222D02*
X14538991Y-10653270D01*
X14538991Y-10653270D02*
X14443753Y-10672317D01*
X14605658Y-10815174D02*
X14615182Y-10805650D01*
X14615182Y-10805650D02*
X14634230Y-10777079D01*
X14634230Y-10777079D02*
X14643753Y-10758031D01*
X14643753Y-10758031D02*
X14653277Y-10729460D01*
X14653277Y-10729460D02*
X14662801Y-10681841D01*
X14662801Y-10681841D02*
X14662801Y-10643746D01*
X14662801Y-10643746D02*
X14653277Y-10596127D01*
X14653277Y-10596127D02*
X14643753Y-10567555D01*
X14643753Y-10567555D02*
X14634230Y-10548508D01*
X14634230Y-10548508D02*
X14615182Y-10519936D01*
X14615182Y-10519936D02*
X14605658Y-10510412D01*
X14967563Y-10815174D02*
X14958039Y-10805650D01*
X14958039Y-10805650D02*
X14938991Y-10777079D01*
X14938991Y-10777079D02*
X14929468Y-10758031D01*
X14929468Y-10758031D02*
X14919944Y-10729460D01*
X14919944Y-10729460D02*
X14910420Y-10681841D01*
X14910420Y-10681841D02*
X14910420Y-10643746D01*
X14910420Y-10643746D02*
X14919944Y-10596127D01*
X14919944Y-10596127D02*
X14929468Y-10567555D01*
X14929468Y-10567555D02*
X14938991Y-10548508D01*
X14938991Y-10548508D02*
X14958039Y-10519936D01*
X14958039Y-10519936D02*
X14967563Y-10510412D01*
X15043753Y-10605650D02*
X15043753Y-10738984D01*
X15043753Y-10624698D02*
X15053277Y-10615174D01*
X15053277Y-10615174D02*
X15072325Y-10605650D01*
X15072325Y-10605650D02*
X15100896Y-10605650D01*
X15100896Y-10605650D02*
X15119944Y-10615174D01*
X15119944Y-10615174D02*
X15129468Y-10634222D01*
X15129468Y-10634222D02*
X15129468Y-10738984D01*
X15253277Y-10738984D02*
X15234230Y-10729460D01*
X15234230Y-10729460D02*
X15224706Y-10719936D01*
X15224706Y-10719936D02*
X15215182Y-10700889D01*
X15215182Y-10700889D02*
X15215182Y-10643746D01*
X15215182Y-10643746D02*
X15224706Y-10624698D01*
X15224706Y-10624698D02*
X15234230Y-10615174D01*
X15234230Y-10615174D02*
X15253277Y-10605650D01*
X15253277Y-10605650D02*
X15281849Y-10605650D01*
X15281849Y-10605650D02*
X15300896Y-10615174D01*
X15300896Y-10615174D02*
X15310420Y-10624698D01*
X15310420Y-10624698D02*
X15319944Y-10643746D01*
X15319944Y-10643746D02*
X15319944Y-10700889D01*
X15319944Y-10700889D02*
X15310420Y-10719936D01*
X15310420Y-10719936D02*
X15300896Y-10729460D01*
X15300896Y-10729460D02*
X15281849Y-10738984D01*
X15281849Y-10738984D02*
X15253277Y-10738984D01*
X15377087Y-10605650D02*
X15453277Y-10605650D01*
X15405658Y-10538984D02*
X15405658Y-10710412D01*
X15405658Y-10710412D02*
X15415182Y-10729460D01*
X15415182Y-10729460D02*
X15434230Y-10738984D01*
X15434230Y-10738984D02*
X15453277Y-10738984D01*
X15672325Y-10605650D02*
X15672325Y-10805650D01*
X15672325Y-10615174D02*
X15691372Y-10605650D01*
X15691372Y-10605650D02*
X15729468Y-10605650D01*
X15729468Y-10605650D02*
X15748515Y-10615174D01*
X15748515Y-10615174D02*
X15758039Y-10624698D01*
X15758039Y-10624698D02*
X15767563Y-10643746D01*
X15767563Y-10643746D02*
X15767563Y-10700889D01*
X15767563Y-10700889D02*
X15758039Y-10719936D01*
X15758039Y-10719936D02*
X15748515Y-10729460D01*
X15748515Y-10729460D02*
X15729468Y-10738984D01*
X15729468Y-10738984D02*
X15691372Y-10738984D01*
X15691372Y-10738984D02*
X15672325Y-10729460D01*
X15881849Y-10738984D02*
X15862801Y-10729460D01*
X15862801Y-10729460D02*
X15853277Y-10710412D01*
X15853277Y-10710412D02*
X15853277Y-10538984D01*
X16043753Y-10738984D02*
X16043753Y-10634222D01*
X16043753Y-10634222D02*
X16034230Y-10615174D01*
X16034230Y-10615174D02*
X16015182Y-10605650D01*
X16015182Y-10605650D02*
X15977087Y-10605650D01*
X15977087Y-10605650D02*
X15958039Y-10615174D01*
X16043753Y-10729460D02*
X16024706Y-10738984D01*
X16024706Y-10738984D02*
X15977087Y-10738984D01*
X15977087Y-10738984D02*
X15958039Y-10729460D01*
X15958039Y-10729460D02*
X15948515Y-10710412D01*
X15948515Y-10710412D02*
X15948515Y-10691365D01*
X15948515Y-10691365D02*
X15958039Y-10672317D01*
X15958039Y-10672317D02*
X15977087Y-10662793D01*
X15977087Y-10662793D02*
X16024706Y-10662793D01*
X16024706Y-10662793D02*
X16043753Y-10653270D01*
X16110420Y-10605650D02*
X16186611Y-10605650D01*
X16138992Y-10538984D02*
X16138992Y-10710412D01*
X16138992Y-10710412D02*
X16148515Y-10729460D01*
X16148515Y-10729460D02*
X16167563Y-10738984D01*
X16167563Y-10738984D02*
X16186611Y-10738984D01*
X16329468Y-10729460D02*
X16310420Y-10738984D01*
X16310420Y-10738984D02*
X16272325Y-10738984D01*
X16272325Y-10738984D02*
X16253277Y-10729460D01*
X16253277Y-10729460D02*
X16243753Y-10710412D01*
X16243753Y-10710412D02*
X16243753Y-10634222D01*
X16243753Y-10634222D02*
X16253277Y-10615174D01*
X16253277Y-10615174D02*
X16272325Y-10605650D01*
X16272325Y-10605650D02*
X16310420Y-10605650D01*
X16310420Y-10605650D02*
X16329468Y-10615174D01*
X16329468Y-10615174D02*
X16338992Y-10634222D01*
X16338992Y-10634222D02*
X16338992Y-10653270D01*
X16338992Y-10653270D02*
X16243753Y-10672317D01*
X16510420Y-10738984D02*
X16510420Y-10538984D01*
X16510420Y-10729460D02*
X16491373Y-10738984D01*
X16491373Y-10738984D02*
X16453277Y-10738984D01*
X16453277Y-10738984D02*
X16434230Y-10729460D01*
X16434230Y-10729460D02*
X16424706Y-10719936D01*
X16424706Y-10719936D02*
X16415182Y-10700889D01*
X16415182Y-10700889D02*
X16415182Y-10643746D01*
X16415182Y-10643746D02*
X16424706Y-10624698D01*
X16424706Y-10624698D02*
X16434230Y-10615174D01*
X16434230Y-10615174D02*
X16453277Y-10605650D01*
X16453277Y-10605650D02*
X16491373Y-10605650D01*
X16491373Y-10605650D02*
X16510420Y-10615174D01*
X16586611Y-10815174D02*
X16596134Y-10805650D01*
X16596134Y-10805650D02*
X16615182Y-10777079D01*
X16615182Y-10777079D02*
X16624706Y-10758031D01*
X16624706Y-10758031D02*
X16634230Y-10729460D01*
X16634230Y-10729460D02*
X16643753Y-10681841D01*
X16643753Y-10681841D02*
X16643753Y-10643746D01*
X16643753Y-10643746D02*
X16634230Y-10596127D01*
X16634230Y-10596127D02*
X16624706Y-10567555D01*
X16624706Y-10567555D02*
X16615182Y-10548508D01*
X16615182Y-10548508D02*
X16596134Y-10519936D01*
X16596134Y-10519936D02*
X16586611Y-10510412D01*
M02*
