G04 #@! TF.GenerationSoftware,KiCad,Pcbnew,7.0.11+dfsg-1build4*
G04 #@! TF.CreationDate,2025-06-10T17:17:13-04:00*
G04 #@! TF.ProjectId,comm-interface,636f6d6d-2d69-46e7-9465-72666163652e,rev?*
G04 #@! TF.SameCoordinates,Original*
G04 #@! TF.FileFunction,Legend,Top*
G04 #@! TF.FilePolarity,Positive*
%FSLAX46Y46*%
G04 Gerber Fmt 4.6, Leading zero omitted, Abs format (unit mm)*
G04 Created by KiCad (PCBNEW 7.0.11+dfsg-1build4) date 2025-06-10 17:17:13*
%MOMM*%
%LPD*%
G01*
G04 APERTURE LIST*
%ADD10C,0.150000*%
%ADD11C,0.200000*%
%ADD12C,0.254000*%
%ADD13C,0.120000*%
%ADD14C,0.100000*%
%ADD15O,3.500000X3.500000*%
%ADD16R,2.000000X1.905000*%
%ADD17O,2.000000X1.905000*%
%ADD18R,1.200000X1.200000*%
%ADD19C,1.200000*%
%ADD20C,1.800000*%
%ADD21C,1.300000*%
%ADD22C,1.600000*%
%ADD23O,1.600000X1.600000*%
%ADD24R,1.700000X1.700000*%
%ADD25O,1.700000X1.700000*%
%ADD26R,1.600000X1.600000*%
%ADD27C,2.100000*%
%ADD28C,1.750000*%
%ADD29C,4.000000*%
G04 APERTURE END LIST*
D10*
X105404761Y-63454819D02*
X105071428Y-62978628D01*
X104833333Y-63454819D02*
X104833333Y-62454819D01*
X104833333Y-62454819D02*
X105214285Y-62454819D01*
X105214285Y-62454819D02*
X105309523Y-62502438D01*
X105309523Y-62502438D02*
X105357142Y-62550057D01*
X105357142Y-62550057D02*
X105404761Y-62645295D01*
X105404761Y-62645295D02*
X105404761Y-62788152D01*
X105404761Y-62788152D02*
X105357142Y-62883390D01*
X105357142Y-62883390D02*
X105309523Y-62931009D01*
X105309523Y-62931009D02*
X105214285Y-62978628D01*
X105214285Y-62978628D02*
X104833333Y-62978628D01*
X105785714Y-63407200D02*
X105928571Y-63454819D01*
X105928571Y-63454819D02*
X106166666Y-63454819D01*
X106166666Y-63454819D02*
X106261904Y-63407200D01*
X106261904Y-63407200D02*
X106309523Y-63359580D01*
X106309523Y-63359580D02*
X106357142Y-63264342D01*
X106357142Y-63264342D02*
X106357142Y-63169104D01*
X106357142Y-63169104D02*
X106309523Y-63073866D01*
X106309523Y-63073866D02*
X106261904Y-63026247D01*
X106261904Y-63026247D02*
X106166666Y-62978628D01*
X106166666Y-62978628D02*
X105976190Y-62931009D01*
X105976190Y-62931009D02*
X105880952Y-62883390D01*
X105880952Y-62883390D02*
X105833333Y-62835771D01*
X105833333Y-62835771D02*
X105785714Y-62740533D01*
X105785714Y-62740533D02*
X105785714Y-62645295D01*
X105785714Y-62645295D02*
X105833333Y-62550057D01*
X105833333Y-62550057D02*
X105880952Y-62502438D01*
X105880952Y-62502438D02*
X105976190Y-62454819D01*
X105976190Y-62454819D02*
X106214285Y-62454819D01*
X106214285Y-62454819D02*
X106357142Y-62502438D01*
X106738095Y-62550057D02*
X106785714Y-62502438D01*
X106785714Y-62502438D02*
X106880952Y-62454819D01*
X106880952Y-62454819D02*
X107119047Y-62454819D01*
X107119047Y-62454819D02*
X107214285Y-62502438D01*
X107214285Y-62502438D02*
X107261904Y-62550057D01*
X107261904Y-62550057D02*
X107309523Y-62645295D01*
X107309523Y-62645295D02*
X107309523Y-62740533D01*
X107309523Y-62740533D02*
X107261904Y-62883390D01*
X107261904Y-62883390D02*
X106690476Y-63454819D01*
X106690476Y-63454819D02*
X107309523Y-63454819D01*
X107642857Y-62454819D02*
X108261904Y-62454819D01*
X108261904Y-62454819D02*
X107928571Y-62835771D01*
X107928571Y-62835771D02*
X108071428Y-62835771D01*
X108071428Y-62835771D02*
X108166666Y-62883390D01*
X108166666Y-62883390D02*
X108214285Y-62931009D01*
X108214285Y-62931009D02*
X108261904Y-63026247D01*
X108261904Y-63026247D02*
X108261904Y-63264342D01*
X108261904Y-63264342D02*
X108214285Y-63359580D01*
X108214285Y-63359580D02*
X108166666Y-63407200D01*
X108166666Y-63407200D02*
X108071428Y-63454819D01*
X108071428Y-63454819D02*
X107785714Y-63454819D01*
X107785714Y-63454819D02*
X107690476Y-63407200D01*
X107690476Y-63407200D02*
X107642857Y-63359580D01*
X108642857Y-62550057D02*
X108690476Y-62502438D01*
X108690476Y-62502438D02*
X108785714Y-62454819D01*
X108785714Y-62454819D02*
X109023809Y-62454819D01*
X109023809Y-62454819D02*
X109119047Y-62502438D01*
X109119047Y-62502438D02*
X109166666Y-62550057D01*
X109166666Y-62550057D02*
X109214285Y-62645295D01*
X109214285Y-62645295D02*
X109214285Y-62740533D01*
X109214285Y-62740533D02*
X109166666Y-62883390D01*
X109166666Y-62883390D02*
X108595238Y-63454819D01*
X108595238Y-63454819D02*
X109214285Y-63454819D01*
X144844819Y-90214285D02*
X144368628Y-90547618D01*
X144844819Y-90785713D02*
X143844819Y-90785713D01*
X143844819Y-90785713D02*
X143844819Y-90404761D01*
X143844819Y-90404761D02*
X143892438Y-90309523D01*
X143892438Y-90309523D02*
X143940057Y-90261904D01*
X143940057Y-90261904D02*
X144035295Y-90214285D01*
X144035295Y-90214285D02*
X144178152Y-90214285D01*
X144178152Y-90214285D02*
X144273390Y-90261904D01*
X144273390Y-90261904D02*
X144321009Y-90309523D01*
X144321009Y-90309523D02*
X144368628Y-90404761D01*
X144368628Y-90404761D02*
X144368628Y-90785713D01*
X144749580Y-89214285D02*
X144797200Y-89261904D01*
X144797200Y-89261904D02*
X144844819Y-89404761D01*
X144844819Y-89404761D02*
X144844819Y-89499999D01*
X144844819Y-89499999D02*
X144797200Y-89642856D01*
X144797200Y-89642856D02*
X144701961Y-89738094D01*
X144701961Y-89738094D02*
X144606723Y-89785713D01*
X144606723Y-89785713D02*
X144416247Y-89833332D01*
X144416247Y-89833332D02*
X144273390Y-89833332D01*
X144273390Y-89833332D02*
X144082914Y-89785713D01*
X144082914Y-89785713D02*
X143987676Y-89738094D01*
X143987676Y-89738094D02*
X143892438Y-89642856D01*
X143892438Y-89642856D02*
X143844819Y-89499999D01*
X143844819Y-89499999D02*
X143844819Y-89404761D01*
X143844819Y-89404761D02*
X143892438Y-89261904D01*
X143892438Y-89261904D02*
X143940057Y-89214285D01*
X143940057Y-88833332D02*
X143892438Y-88785713D01*
X143892438Y-88785713D02*
X143844819Y-88690475D01*
X143844819Y-88690475D02*
X143844819Y-88452380D01*
X143844819Y-88452380D02*
X143892438Y-88357142D01*
X143892438Y-88357142D02*
X143940057Y-88309523D01*
X143940057Y-88309523D02*
X144035295Y-88261904D01*
X144035295Y-88261904D02*
X144130533Y-88261904D01*
X144130533Y-88261904D02*
X144273390Y-88309523D01*
X144273390Y-88309523D02*
X144844819Y-88880951D01*
X144844819Y-88880951D02*
X144844819Y-88261904D01*
X143844819Y-87642856D02*
X143844819Y-87547618D01*
X143844819Y-87547618D02*
X143892438Y-87452380D01*
X143892438Y-87452380D02*
X143940057Y-87404761D01*
X143940057Y-87404761D02*
X144035295Y-87357142D01*
X144035295Y-87357142D02*
X144225771Y-87309523D01*
X144225771Y-87309523D02*
X144463866Y-87309523D01*
X144463866Y-87309523D02*
X144654342Y-87357142D01*
X144654342Y-87357142D02*
X144749580Y-87404761D01*
X144749580Y-87404761D02*
X144797200Y-87452380D01*
X144797200Y-87452380D02*
X144844819Y-87547618D01*
X144844819Y-87547618D02*
X144844819Y-87642856D01*
X144844819Y-87642856D02*
X144797200Y-87738094D01*
X144797200Y-87738094D02*
X144749580Y-87785713D01*
X144749580Y-87785713D02*
X144654342Y-87833332D01*
X144654342Y-87833332D02*
X144463866Y-87880951D01*
X144463866Y-87880951D02*
X144225771Y-87880951D01*
X144225771Y-87880951D02*
X144035295Y-87833332D01*
X144035295Y-87833332D02*
X143940057Y-87785713D01*
X143940057Y-87785713D02*
X143892438Y-87738094D01*
X143892438Y-87738094D02*
X143844819Y-87642856D01*
X144844819Y-86357142D02*
X144844819Y-86928570D01*
X144844819Y-86642856D02*
X143844819Y-86642856D01*
X143844819Y-86642856D02*
X143987676Y-86738094D01*
X143987676Y-86738094D02*
X144082914Y-86833332D01*
X144082914Y-86833332D02*
X144130533Y-86928570D01*
X144178152Y-85499999D02*
X144844819Y-85499999D01*
X143797200Y-85738094D02*
X144511485Y-85976189D01*
X144511485Y-85976189D02*
X144511485Y-85357142D01*
X144749580Y-83642856D02*
X144797200Y-83690475D01*
X144797200Y-83690475D02*
X144844819Y-83833332D01*
X144844819Y-83833332D02*
X144844819Y-83928570D01*
X144844819Y-83928570D02*
X144797200Y-84071427D01*
X144797200Y-84071427D02*
X144701961Y-84166665D01*
X144701961Y-84166665D02*
X144606723Y-84214284D01*
X144606723Y-84214284D02*
X144416247Y-84261903D01*
X144416247Y-84261903D02*
X144273390Y-84261903D01*
X144273390Y-84261903D02*
X144082914Y-84214284D01*
X144082914Y-84214284D02*
X143987676Y-84166665D01*
X143987676Y-84166665D02*
X143892438Y-84071427D01*
X143892438Y-84071427D02*
X143844819Y-83928570D01*
X143844819Y-83928570D02*
X143844819Y-83833332D01*
X143844819Y-83833332D02*
X143892438Y-83690475D01*
X143892438Y-83690475D02*
X143940057Y-83642856D01*
X144844819Y-83071427D02*
X144797200Y-83166665D01*
X144797200Y-83166665D02*
X144749580Y-83214284D01*
X144749580Y-83214284D02*
X144654342Y-83261903D01*
X144654342Y-83261903D02*
X144368628Y-83261903D01*
X144368628Y-83261903D02*
X144273390Y-83214284D01*
X144273390Y-83214284D02*
X144225771Y-83166665D01*
X144225771Y-83166665D02*
X144178152Y-83071427D01*
X144178152Y-83071427D02*
X144178152Y-82928570D01*
X144178152Y-82928570D02*
X144225771Y-82833332D01*
X144225771Y-82833332D02*
X144273390Y-82785713D01*
X144273390Y-82785713D02*
X144368628Y-82738094D01*
X144368628Y-82738094D02*
X144654342Y-82738094D01*
X144654342Y-82738094D02*
X144749580Y-82785713D01*
X144749580Y-82785713D02*
X144797200Y-82833332D01*
X144797200Y-82833332D02*
X144844819Y-82928570D01*
X144844819Y-82928570D02*
X144844819Y-83071427D01*
X144844819Y-82309522D02*
X144178152Y-82309522D01*
X144273390Y-82309522D02*
X144225771Y-82261903D01*
X144225771Y-82261903D02*
X144178152Y-82166665D01*
X144178152Y-82166665D02*
X144178152Y-82023808D01*
X144178152Y-82023808D02*
X144225771Y-81928570D01*
X144225771Y-81928570D02*
X144321009Y-81880951D01*
X144321009Y-81880951D02*
X144844819Y-81880951D01*
X144321009Y-81880951D02*
X144225771Y-81833332D01*
X144225771Y-81833332D02*
X144178152Y-81738094D01*
X144178152Y-81738094D02*
X144178152Y-81595237D01*
X144178152Y-81595237D02*
X144225771Y-81499998D01*
X144225771Y-81499998D02*
X144321009Y-81452379D01*
X144321009Y-81452379D02*
X144844819Y-81452379D01*
X144844819Y-80976189D02*
X144178152Y-80976189D01*
X144273390Y-80976189D02*
X144225771Y-80928570D01*
X144225771Y-80928570D02*
X144178152Y-80833332D01*
X144178152Y-80833332D02*
X144178152Y-80690475D01*
X144178152Y-80690475D02*
X144225771Y-80595237D01*
X144225771Y-80595237D02*
X144321009Y-80547618D01*
X144321009Y-80547618D02*
X144844819Y-80547618D01*
X144321009Y-80547618D02*
X144225771Y-80499999D01*
X144225771Y-80499999D02*
X144178152Y-80404761D01*
X144178152Y-80404761D02*
X144178152Y-80261904D01*
X144178152Y-80261904D02*
X144225771Y-80166665D01*
X144225771Y-80166665D02*
X144321009Y-80119046D01*
X144321009Y-80119046D02*
X144844819Y-80119046D01*
X144178152Y-79214285D02*
X144844819Y-79214285D01*
X144178152Y-79642856D02*
X144701961Y-79642856D01*
X144701961Y-79642856D02*
X144797200Y-79595237D01*
X144797200Y-79595237D02*
X144844819Y-79499999D01*
X144844819Y-79499999D02*
X144844819Y-79357142D01*
X144844819Y-79357142D02*
X144797200Y-79261904D01*
X144797200Y-79261904D02*
X144749580Y-79214285D01*
X144178152Y-78738094D02*
X144844819Y-78738094D01*
X144273390Y-78738094D02*
X144225771Y-78690475D01*
X144225771Y-78690475D02*
X144178152Y-78595237D01*
X144178152Y-78595237D02*
X144178152Y-78452380D01*
X144178152Y-78452380D02*
X144225771Y-78357142D01*
X144225771Y-78357142D02*
X144321009Y-78309523D01*
X144321009Y-78309523D02*
X144844819Y-78309523D01*
X144844819Y-77833332D02*
X144178152Y-77833332D01*
X143844819Y-77833332D02*
X143892438Y-77880951D01*
X143892438Y-77880951D02*
X143940057Y-77833332D01*
X143940057Y-77833332D02*
X143892438Y-77785713D01*
X143892438Y-77785713D02*
X143844819Y-77833332D01*
X143844819Y-77833332D02*
X143940057Y-77833332D01*
X144797200Y-76928571D02*
X144844819Y-77023809D01*
X144844819Y-77023809D02*
X144844819Y-77214285D01*
X144844819Y-77214285D02*
X144797200Y-77309523D01*
X144797200Y-77309523D02*
X144749580Y-77357142D01*
X144749580Y-77357142D02*
X144654342Y-77404761D01*
X144654342Y-77404761D02*
X144368628Y-77404761D01*
X144368628Y-77404761D02*
X144273390Y-77357142D01*
X144273390Y-77357142D02*
X144225771Y-77309523D01*
X144225771Y-77309523D02*
X144178152Y-77214285D01*
X144178152Y-77214285D02*
X144178152Y-77023809D01*
X144178152Y-77023809D02*
X144225771Y-76928571D01*
X144844819Y-76071428D02*
X144321009Y-76071428D01*
X144321009Y-76071428D02*
X144225771Y-76119047D01*
X144225771Y-76119047D02*
X144178152Y-76214285D01*
X144178152Y-76214285D02*
X144178152Y-76404761D01*
X144178152Y-76404761D02*
X144225771Y-76499999D01*
X144797200Y-76071428D02*
X144844819Y-76166666D01*
X144844819Y-76166666D02*
X144844819Y-76404761D01*
X144844819Y-76404761D02*
X144797200Y-76499999D01*
X144797200Y-76499999D02*
X144701961Y-76547618D01*
X144701961Y-76547618D02*
X144606723Y-76547618D01*
X144606723Y-76547618D02*
X144511485Y-76499999D01*
X144511485Y-76499999D02*
X144463866Y-76404761D01*
X144463866Y-76404761D02*
X144463866Y-76166666D01*
X144463866Y-76166666D02*
X144416247Y-76071428D01*
X144178152Y-75738094D02*
X144178152Y-75357142D01*
X143844819Y-75595237D02*
X144701961Y-75595237D01*
X144701961Y-75595237D02*
X144797200Y-75547618D01*
X144797200Y-75547618D02*
X144844819Y-75452380D01*
X144844819Y-75452380D02*
X144844819Y-75357142D01*
X144844819Y-75023808D02*
X144178152Y-75023808D01*
X143844819Y-75023808D02*
X143892438Y-75071427D01*
X143892438Y-75071427D02*
X143940057Y-75023808D01*
X143940057Y-75023808D02*
X143892438Y-74976189D01*
X143892438Y-74976189D02*
X143844819Y-75023808D01*
X143844819Y-75023808D02*
X143940057Y-75023808D01*
X144844819Y-74404761D02*
X144797200Y-74499999D01*
X144797200Y-74499999D02*
X144749580Y-74547618D01*
X144749580Y-74547618D02*
X144654342Y-74595237D01*
X144654342Y-74595237D02*
X144368628Y-74595237D01*
X144368628Y-74595237D02*
X144273390Y-74547618D01*
X144273390Y-74547618D02*
X144225771Y-74499999D01*
X144225771Y-74499999D02*
X144178152Y-74404761D01*
X144178152Y-74404761D02*
X144178152Y-74261904D01*
X144178152Y-74261904D02*
X144225771Y-74166666D01*
X144225771Y-74166666D02*
X144273390Y-74119047D01*
X144273390Y-74119047D02*
X144368628Y-74071428D01*
X144368628Y-74071428D02*
X144654342Y-74071428D01*
X144654342Y-74071428D02*
X144749580Y-74119047D01*
X144749580Y-74119047D02*
X144797200Y-74166666D01*
X144797200Y-74166666D02*
X144844819Y-74261904D01*
X144844819Y-74261904D02*
X144844819Y-74404761D01*
X144178152Y-73642856D02*
X144844819Y-73642856D01*
X144273390Y-73642856D02*
X144225771Y-73595237D01*
X144225771Y-73595237D02*
X144178152Y-73499999D01*
X144178152Y-73499999D02*
X144178152Y-73357142D01*
X144178152Y-73357142D02*
X144225771Y-73261904D01*
X144225771Y-73261904D02*
X144321009Y-73214285D01*
X144321009Y-73214285D02*
X144844819Y-73214285D01*
X146454819Y-88071429D02*
X145454819Y-88071429D01*
X145788152Y-87595239D02*
X146454819Y-87595239D01*
X145883390Y-87595239D02*
X145835771Y-87547620D01*
X145835771Y-87547620D02*
X145788152Y-87452382D01*
X145788152Y-87452382D02*
X145788152Y-87309525D01*
X145788152Y-87309525D02*
X145835771Y-87214287D01*
X145835771Y-87214287D02*
X145931009Y-87166668D01*
X145931009Y-87166668D02*
X146454819Y-87166668D01*
X145788152Y-86833334D02*
X145788152Y-86452382D01*
X145454819Y-86690477D02*
X146311961Y-86690477D01*
X146311961Y-86690477D02*
X146407200Y-86642858D01*
X146407200Y-86642858D02*
X146454819Y-86547620D01*
X146454819Y-86547620D02*
X146454819Y-86452382D01*
X146407200Y-85738096D02*
X146454819Y-85833334D01*
X146454819Y-85833334D02*
X146454819Y-86023810D01*
X146454819Y-86023810D02*
X146407200Y-86119048D01*
X146407200Y-86119048D02*
X146311961Y-86166667D01*
X146311961Y-86166667D02*
X145931009Y-86166667D01*
X145931009Y-86166667D02*
X145835771Y-86119048D01*
X145835771Y-86119048D02*
X145788152Y-86023810D01*
X145788152Y-86023810D02*
X145788152Y-85833334D01*
X145788152Y-85833334D02*
X145835771Y-85738096D01*
X145835771Y-85738096D02*
X145931009Y-85690477D01*
X145931009Y-85690477D02*
X146026247Y-85690477D01*
X146026247Y-85690477D02*
X146121485Y-86166667D01*
X146454819Y-85261905D02*
X145788152Y-85261905D01*
X145978628Y-85261905D02*
X145883390Y-85214286D01*
X145883390Y-85214286D02*
X145835771Y-85166667D01*
X145835771Y-85166667D02*
X145788152Y-85071429D01*
X145788152Y-85071429D02*
X145788152Y-84976191D01*
X145788152Y-84785714D02*
X145788152Y-84404762D01*
X146454819Y-84642857D02*
X145597676Y-84642857D01*
X145597676Y-84642857D02*
X145502438Y-84595238D01*
X145502438Y-84595238D02*
X145454819Y-84500000D01*
X145454819Y-84500000D02*
X145454819Y-84404762D01*
X146454819Y-83642857D02*
X145931009Y-83642857D01*
X145931009Y-83642857D02*
X145835771Y-83690476D01*
X145835771Y-83690476D02*
X145788152Y-83785714D01*
X145788152Y-83785714D02*
X145788152Y-83976190D01*
X145788152Y-83976190D02*
X145835771Y-84071428D01*
X146407200Y-83642857D02*
X146454819Y-83738095D01*
X146454819Y-83738095D02*
X146454819Y-83976190D01*
X146454819Y-83976190D02*
X146407200Y-84071428D01*
X146407200Y-84071428D02*
X146311961Y-84119047D01*
X146311961Y-84119047D02*
X146216723Y-84119047D01*
X146216723Y-84119047D02*
X146121485Y-84071428D01*
X146121485Y-84071428D02*
X146073866Y-83976190D01*
X146073866Y-83976190D02*
X146073866Y-83738095D01*
X146073866Y-83738095D02*
X146026247Y-83642857D01*
X146407200Y-82738095D02*
X146454819Y-82833333D01*
X146454819Y-82833333D02*
X146454819Y-83023809D01*
X146454819Y-83023809D02*
X146407200Y-83119047D01*
X146407200Y-83119047D02*
X146359580Y-83166666D01*
X146359580Y-83166666D02*
X146264342Y-83214285D01*
X146264342Y-83214285D02*
X145978628Y-83214285D01*
X145978628Y-83214285D02*
X145883390Y-83166666D01*
X145883390Y-83166666D02*
X145835771Y-83119047D01*
X145835771Y-83119047D02*
X145788152Y-83023809D01*
X145788152Y-83023809D02*
X145788152Y-82833333D01*
X145788152Y-82833333D02*
X145835771Y-82738095D01*
X146407200Y-81928571D02*
X146454819Y-82023809D01*
X146454819Y-82023809D02*
X146454819Y-82214285D01*
X146454819Y-82214285D02*
X146407200Y-82309523D01*
X146407200Y-82309523D02*
X146311961Y-82357142D01*
X146311961Y-82357142D02*
X145931009Y-82357142D01*
X145931009Y-82357142D02*
X145835771Y-82309523D01*
X145835771Y-82309523D02*
X145788152Y-82214285D01*
X145788152Y-82214285D02*
X145788152Y-82023809D01*
X145788152Y-82023809D02*
X145835771Y-81928571D01*
X145835771Y-81928571D02*
X145931009Y-81880952D01*
X145931009Y-81880952D02*
X146026247Y-81880952D01*
X146026247Y-81880952D02*
X146121485Y-82357142D01*
X146454819Y-80690475D02*
X145454819Y-80690475D01*
X145454819Y-80690475D02*
X146169104Y-80357142D01*
X146169104Y-80357142D02*
X145454819Y-80023809D01*
X145454819Y-80023809D02*
X146454819Y-80023809D01*
X146454819Y-79404761D02*
X146407200Y-79499999D01*
X146407200Y-79499999D02*
X146359580Y-79547618D01*
X146359580Y-79547618D02*
X146264342Y-79595237D01*
X146264342Y-79595237D02*
X145978628Y-79595237D01*
X145978628Y-79595237D02*
X145883390Y-79547618D01*
X145883390Y-79547618D02*
X145835771Y-79499999D01*
X145835771Y-79499999D02*
X145788152Y-79404761D01*
X145788152Y-79404761D02*
X145788152Y-79261904D01*
X145788152Y-79261904D02*
X145835771Y-79166666D01*
X145835771Y-79166666D02*
X145883390Y-79119047D01*
X145883390Y-79119047D02*
X145978628Y-79071428D01*
X145978628Y-79071428D02*
X146264342Y-79071428D01*
X146264342Y-79071428D02*
X146359580Y-79119047D01*
X146359580Y-79119047D02*
X146407200Y-79166666D01*
X146407200Y-79166666D02*
X146454819Y-79261904D01*
X146454819Y-79261904D02*
X146454819Y-79404761D01*
X146454819Y-78214285D02*
X145454819Y-78214285D01*
X146407200Y-78214285D02*
X146454819Y-78309523D01*
X146454819Y-78309523D02*
X146454819Y-78499999D01*
X146454819Y-78499999D02*
X146407200Y-78595237D01*
X146407200Y-78595237D02*
X146359580Y-78642856D01*
X146359580Y-78642856D02*
X146264342Y-78690475D01*
X146264342Y-78690475D02*
X145978628Y-78690475D01*
X145978628Y-78690475D02*
X145883390Y-78642856D01*
X145883390Y-78642856D02*
X145835771Y-78595237D01*
X145835771Y-78595237D02*
X145788152Y-78499999D01*
X145788152Y-78499999D02*
X145788152Y-78309523D01*
X145788152Y-78309523D02*
X145835771Y-78214285D01*
X145788152Y-77309523D02*
X146454819Y-77309523D01*
X145788152Y-77738094D02*
X146311961Y-77738094D01*
X146311961Y-77738094D02*
X146407200Y-77690475D01*
X146407200Y-77690475D02*
X146454819Y-77595237D01*
X146454819Y-77595237D02*
X146454819Y-77452380D01*
X146454819Y-77452380D02*
X146407200Y-77357142D01*
X146407200Y-77357142D02*
X146359580Y-77309523D01*
X146454819Y-76690475D02*
X146407200Y-76785713D01*
X146407200Y-76785713D02*
X146311961Y-76833332D01*
X146311961Y-76833332D02*
X145454819Y-76833332D01*
X146407200Y-75928570D02*
X146454819Y-76023808D01*
X146454819Y-76023808D02*
X146454819Y-76214284D01*
X146454819Y-76214284D02*
X146407200Y-76309522D01*
X146407200Y-76309522D02*
X146311961Y-76357141D01*
X146311961Y-76357141D02*
X145931009Y-76357141D01*
X145931009Y-76357141D02*
X145835771Y-76309522D01*
X145835771Y-76309522D02*
X145788152Y-76214284D01*
X145788152Y-76214284D02*
X145788152Y-76023808D01*
X145788152Y-76023808D02*
X145835771Y-75928570D01*
X145835771Y-75928570D02*
X145931009Y-75880951D01*
X145931009Y-75880951D02*
X146026247Y-75880951D01*
X146026247Y-75880951D02*
X146121485Y-76357141D01*
X148064819Y-88738095D02*
X147064819Y-88738095D01*
X147445771Y-88738095D02*
X147398152Y-88642857D01*
X147398152Y-88642857D02*
X147398152Y-88452381D01*
X147398152Y-88452381D02*
X147445771Y-88357143D01*
X147445771Y-88357143D02*
X147493390Y-88309524D01*
X147493390Y-88309524D02*
X147588628Y-88261905D01*
X147588628Y-88261905D02*
X147874342Y-88261905D01*
X147874342Y-88261905D02*
X147969580Y-88309524D01*
X147969580Y-88309524D02*
X148017200Y-88357143D01*
X148017200Y-88357143D02*
X148064819Y-88452381D01*
X148064819Y-88452381D02*
X148064819Y-88642857D01*
X148064819Y-88642857D02*
X148017200Y-88738095D01*
X147398152Y-87928571D02*
X148064819Y-87690476D01*
X147398152Y-87452381D02*
X148064819Y-87690476D01*
X148064819Y-87690476D02*
X148302914Y-87785714D01*
X148302914Y-87785714D02*
X148350533Y-87833333D01*
X148350533Y-87833333D02*
X148398152Y-87928571D01*
X147779104Y-86357142D02*
X147779104Y-85880952D01*
X148064819Y-86452380D02*
X147064819Y-86119047D01*
X147064819Y-86119047D02*
X148064819Y-85785714D01*
X148064819Y-85023809D02*
X147541009Y-85023809D01*
X147541009Y-85023809D02*
X147445771Y-85071428D01*
X147445771Y-85071428D02*
X147398152Y-85166666D01*
X147398152Y-85166666D02*
X147398152Y-85357142D01*
X147398152Y-85357142D02*
X147445771Y-85452380D01*
X148017200Y-85023809D02*
X148064819Y-85119047D01*
X148064819Y-85119047D02*
X148064819Y-85357142D01*
X148064819Y-85357142D02*
X148017200Y-85452380D01*
X148017200Y-85452380D02*
X147921961Y-85499999D01*
X147921961Y-85499999D02*
X147826723Y-85499999D01*
X147826723Y-85499999D02*
X147731485Y-85452380D01*
X147731485Y-85452380D02*
X147683866Y-85357142D01*
X147683866Y-85357142D02*
X147683866Y-85119047D01*
X147683866Y-85119047D02*
X147636247Y-85023809D01*
X148064819Y-84547618D02*
X147398152Y-84547618D01*
X147588628Y-84547618D02*
X147493390Y-84499999D01*
X147493390Y-84499999D02*
X147445771Y-84452380D01*
X147445771Y-84452380D02*
X147398152Y-84357142D01*
X147398152Y-84357142D02*
X147398152Y-84261904D01*
X148064819Y-83785713D02*
X148017200Y-83880951D01*
X148017200Y-83880951D02*
X147969580Y-83928570D01*
X147969580Y-83928570D02*
X147874342Y-83976189D01*
X147874342Y-83976189D02*
X147588628Y-83976189D01*
X147588628Y-83976189D02*
X147493390Y-83928570D01*
X147493390Y-83928570D02*
X147445771Y-83880951D01*
X147445771Y-83880951D02*
X147398152Y-83785713D01*
X147398152Y-83785713D02*
X147398152Y-83642856D01*
X147398152Y-83642856D02*
X147445771Y-83547618D01*
X147445771Y-83547618D02*
X147493390Y-83499999D01*
X147493390Y-83499999D02*
X147588628Y-83452380D01*
X147588628Y-83452380D02*
X147874342Y-83452380D01*
X147874342Y-83452380D02*
X147969580Y-83499999D01*
X147969580Y-83499999D02*
X148017200Y-83547618D01*
X148017200Y-83547618D02*
X148064819Y-83642856D01*
X148064819Y-83642856D02*
X148064819Y-83785713D01*
X147398152Y-83023808D02*
X148064819Y-83023808D01*
X147493390Y-83023808D02*
X147445771Y-82976189D01*
X147445771Y-82976189D02*
X147398152Y-82880951D01*
X147398152Y-82880951D02*
X147398152Y-82738094D01*
X147398152Y-82738094D02*
X147445771Y-82642856D01*
X147445771Y-82642856D02*
X147541009Y-82595237D01*
X147541009Y-82595237D02*
X148064819Y-82595237D01*
X148064819Y-81357141D02*
X147064819Y-81357141D01*
X147064819Y-81357141D02*
X147779104Y-81023808D01*
X147779104Y-81023808D02*
X147064819Y-80690475D01*
X147064819Y-80690475D02*
X148064819Y-80690475D01*
X148064819Y-79785713D02*
X147541009Y-79785713D01*
X147541009Y-79785713D02*
X147445771Y-79833332D01*
X147445771Y-79833332D02*
X147398152Y-79928570D01*
X147398152Y-79928570D02*
X147398152Y-80119046D01*
X147398152Y-80119046D02*
X147445771Y-80214284D01*
X148017200Y-79785713D02*
X148064819Y-79880951D01*
X148064819Y-79880951D02*
X148064819Y-80119046D01*
X148064819Y-80119046D02*
X148017200Y-80214284D01*
X148017200Y-80214284D02*
X147921961Y-80261903D01*
X147921961Y-80261903D02*
X147826723Y-80261903D01*
X147826723Y-80261903D02*
X147731485Y-80214284D01*
X147731485Y-80214284D02*
X147683866Y-80119046D01*
X147683866Y-80119046D02*
X147683866Y-79880951D01*
X147683866Y-79880951D02*
X147636247Y-79785713D01*
X147398152Y-79404760D02*
X148064819Y-79166665D01*
X148064819Y-79166665D02*
X147398152Y-78928570D01*
X148064819Y-78547617D02*
X147398152Y-78547617D01*
X147588628Y-78547617D02*
X147493390Y-78499998D01*
X147493390Y-78499998D02*
X147445771Y-78452379D01*
X147445771Y-78452379D02*
X147398152Y-78357141D01*
X147398152Y-78357141D02*
X147398152Y-78261903D01*
X148064819Y-77928569D02*
X147398152Y-77928569D01*
X147064819Y-77928569D02*
X147112438Y-77976188D01*
X147112438Y-77976188D02*
X147160057Y-77928569D01*
X147160057Y-77928569D02*
X147112438Y-77880950D01*
X147112438Y-77880950D02*
X147064819Y-77928569D01*
X147064819Y-77928569D02*
X147160057Y-77928569D01*
X147398152Y-77452379D02*
X148064819Y-77452379D01*
X147493390Y-77452379D02*
X147445771Y-77404760D01*
X147445771Y-77404760D02*
X147398152Y-77309522D01*
X147398152Y-77309522D02*
X147398152Y-77166665D01*
X147398152Y-77166665D02*
X147445771Y-77071427D01*
X147445771Y-77071427D02*
X147541009Y-77023808D01*
X147541009Y-77023808D02*
X148064819Y-77023808D01*
X148064819Y-76119046D02*
X147541009Y-76119046D01*
X147541009Y-76119046D02*
X147445771Y-76166665D01*
X147445771Y-76166665D02*
X147398152Y-76261903D01*
X147398152Y-76261903D02*
X147398152Y-76452379D01*
X147398152Y-76452379D02*
X147445771Y-76547617D01*
X148017200Y-76119046D02*
X148064819Y-76214284D01*
X148064819Y-76214284D02*
X148064819Y-76452379D01*
X148064819Y-76452379D02*
X148017200Y-76547617D01*
X148017200Y-76547617D02*
X147921961Y-76595236D01*
X147921961Y-76595236D02*
X147826723Y-76595236D01*
X147826723Y-76595236D02*
X147731485Y-76547617D01*
X147731485Y-76547617D02*
X147683866Y-76452379D01*
X147683866Y-76452379D02*
X147683866Y-76214284D01*
X147683866Y-76214284D02*
X147636247Y-76119046D01*
X148017200Y-75214284D02*
X148064819Y-75309522D01*
X148064819Y-75309522D02*
X148064819Y-75499998D01*
X148064819Y-75499998D02*
X148017200Y-75595236D01*
X148017200Y-75595236D02*
X147969580Y-75642855D01*
X147969580Y-75642855D02*
X147874342Y-75690474D01*
X147874342Y-75690474D02*
X147588628Y-75690474D01*
X147588628Y-75690474D02*
X147493390Y-75642855D01*
X147493390Y-75642855D02*
X147445771Y-75595236D01*
X147445771Y-75595236D02*
X147398152Y-75499998D01*
X147398152Y-75499998D02*
X147398152Y-75309522D01*
X147398152Y-75309522D02*
X147445771Y-75214284D01*
D11*
X102997200Y-99766320D02*
X103032760Y-99766320D01*
D10*
X194238095Y-53502438D02*
X194142857Y-53454819D01*
X194142857Y-53454819D02*
X194000000Y-53454819D01*
X194000000Y-53454819D02*
X193857143Y-53502438D01*
X193857143Y-53502438D02*
X193761905Y-53597676D01*
X193761905Y-53597676D02*
X193714286Y-53692914D01*
X193714286Y-53692914D02*
X193666667Y-53883390D01*
X193666667Y-53883390D02*
X193666667Y-54026247D01*
X193666667Y-54026247D02*
X193714286Y-54216723D01*
X193714286Y-54216723D02*
X193761905Y-54311961D01*
X193761905Y-54311961D02*
X193857143Y-54407200D01*
X193857143Y-54407200D02*
X194000000Y-54454819D01*
X194000000Y-54454819D02*
X194095238Y-54454819D01*
X194095238Y-54454819D02*
X194238095Y-54407200D01*
X194238095Y-54407200D02*
X194285714Y-54359580D01*
X194285714Y-54359580D02*
X194285714Y-54026247D01*
X194285714Y-54026247D02*
X194095238Y-54026247D01*
X194714286Y-54454819D02*
X194714286Y-53454819D01*
X194714286Y-53454819D02*
X195285714Y-54454819D01*
X195285714Y-54454819D02*
X195285714Y-53454819D01*
X195761905Y-54454819D02*
X195761905Y-53454819D01*
X195761905Y-53454819D02*
X196000000Y-53454819D01*
X196000000Y-53454819D02*
X196142857Y-53502438D01*
X196142857Y-53502438D02*
X196238095Y-53597676D01*
X196238095Y-53597676D02*
X196285714Y-53692914D01*
X196285714Y-53692914D02*
X196333333Y-53883390D01*
X196333333Y-53883390D02*
X196333333Y-54026247D01*
X196333333Y-54026247D02*
X196285714Y-54216723D01*
X196285714Y-54216723D02*
X196238095Y-54311961D01*
X196238095Y-54311961D02*
X196142857Y-54407200D01*
X196142857Y-54407200D02*
X196000000Y-54454819D01*
X196000000Y-54454819D02*
X195761905Y-54454819D01*
X119874819Y-65221904D02*
X120684342Y-65221904D01*
X120684342Y-65221904D02*
X120779580Y-65174285D01*
X120779580Y-65174285D02*
X120827200Y-65126666D01*
X120827200Y-65126666D02*
X120874819Y-65031428D01*
X120874819Y-65031428D02*
X120874819Y-64840952D01*
X120874819Y-64840952D02*
X120827200Y-64745714D01*
X120827200Y-64745714D02*
X120779580Y-64698095D01*
X120779580Y-64698095D02*
X120684342Y-64650476D01*
X120684342Y-64650476D02*
X119874819Y-64650476D01*
X120874819Y-63650476D02*
X120874819Y-64221904D01*
X120874819Y-63936190D02*
X119874819Y-63936190D01*
X119874819Y-63936190D02*
X120017676Y-64031428D01*
X120017676Y-64031428D02*
X120112914Y-64126666D01*
X120112914Y-64126666D02*
X120160533Y-64221904D01*
X139833333Y-91359580D02*
X139785714Y-91407200D01*
X139785714Y-91407200D02*
X139642857Y-91454819D01*
X139642857Y-91454819D02*
X139547619Y-91454819D01*
X139547619Y-91454819D02*
X139404762Y-91407200D01*
X139404762Y-91407200D02*
X139309524Y-91311961D01*
X139309524Y-91311961D02*
X139261905Y-91216723D01*
X139261905Y-91216723D02*
X139214286Y-91026247D01*
X139214286Y-91026247D02*
X139214286Y-90883390D01*
X139214286Y-90883390D02*
X139261905Y-90692914D01*
X139261905Y-90692914D02*
X139309524Y-90597676D01*
X139309524Y-90597676D02*
X139404762Y-90502438D01*
X139404762Y-90502438D02*
X139547619Y-90454819D01*
X139547619Y-90454819D02*
X139642857Y-90454819D01*
X139642857Y-90454819D02*
X139785714Y-90502438D01*
X139785714Y-90502438D02*
X139833333Y-90550057D01*
X140690476Y-90788152D02*
X140690476Y-91454819D01*
X140452381Y-90407200D02*
X140214286Y-91121485D01*
X140214286Y-91121485D02*
X140833333Y-91121485D01*
X139833333Y-77359580D02*
X139785714Y-77407200D01*
X139785714Y-77407200D02*
X139642857Y-77454819D01*
X139642857Y-77454819D02*
X139547619Y-77454819D01*
X139547619Y-77454819D02*
X139404762Y-77407200D01*
X139404762Y-77407200D02*
X139309524Y-77311961D01*
X139309524Y-77311961D02*
X139261905Y-77216723D01*
X139261905Y-77216723D02*
X139214286Y-77026247D01*
X139214286Y-77026247D02*
X139214286Y-76883390D01*
X139214286Y-76883390D02*
X139261905Y-76692914D01*
X139261905Y-76692914D02*
X139309524Y-76597676D01*
X139309524Y-76597676D02*
X139404762Y-76502438D01*
X139404762Y-76502438D02*
X139547619Y-76454819D01*
X139547619Y-76454819D02*
X139642857Y-76454819D01*
X139642857Y-76454819D02*
X139785714Y-76502438D01*
X139785714Y-76502438D02*
X139833333Y-76550057D01*
X140166667Y-76454819D02*
X140785714Y-76454819D01*
X140785714Y-76454819D02*
X140452381Y-76835771D01*
X140452381Y-76835771D02*
X140595238Y-76835771D01*
X140595238Y-76835771D02*
X140690476Y-76883390D01*
X140690476Y-76883390D02*
X140738095Y-76931009D01*
X140738095Y-76931009D02*
X140785714Y-77026247D01*
X140785714Y-77026247D02*
X140785714Y-77264342D01*
X140785714Y-77264342D02*
X140738095Y-77359580D01*
X140738095Y-77359580D02*
X140690476Y-77407200D01*
X140690476Y-77407200D02*
X140595238Y-77454819D01*
X140595238Y-77454819D02*
X140309524Y-77454819D01*
X140309524Y-77454819D02*
X140214286Y-77407200D01*
X140214286Y-77407200D02*
X140166667Y-77359580D01*
X113833333Y-85359580D02*
X113785714Y-85407200D01*
X113785714Y-85407200D02*
X113642857Y-85454819D01*
X113642857Y-85454819D02*
X113547619Y-85454819D01*
X113547619Y-85454819D02*
X113404762Y-85407200D01*
X113404762Y-85407200D02*
X113309524Y-85311961D01*
X113309524Y-85311961D02*
X113261905Y-85216723D01*
X113261905Y-85216723D02*
X113214286Y-85026247D01*
X113214286Y-85026247D02*
X113214286Y-84883390D01*
X113214286Y-84883390D02*
X113261905Y-84692914D01*
X113261905Y-84692914D02*
X113309524Y-84597676D01*
X113309524Y-84597676D02*
X113404762Y-84502438D01*
X113404762Y-84502438D02*
X113547619Y-84454819D01*
X113547619Y-84454819D02*
X113642857Y-84454819D01*
X113642857Y-84454819D02*
X113785714Y-84502438D01*
X113785714Y-84502438D02*
X113833333Y-84550057D01*
X114214286Y-84550057D02*
X114261905Y-84502438D01*
X114261905Y-84502438D02*
X114357143Y-84454819D01*
X114357143Y-84454819D02*
X114595238Y-84454819D01*
X114595238Y-84454819D02*
X114690476Y-84502438D01*
X114690476Y-84502438D02*
X114738095Y-84550057D01*
X114738095Y-84550057D02*
X114785714Y-84645295D01*
X114785714Y-84645295D02*
X114785714Y-84740533D01*
X114785714Y-84740533D02*
X114738095Y-84883390D01*
X114738095Y-84883390D02*
X114166667Y-85454819D01*
X114166667Y-85454819D02*
X114785714Y-85454819D01*
X113833333Y-77359580D02*
X113785714Y-77407200D01*
X113785714Y-77407200D02*
X113642857Y-77454819D01*
X113642857Y-77454819D02*
X113547619Y-77454819D01*
X113547619Y-77454819D02*
X113404762Y-77407200D01*
X113404762Y-77407200D02*
X113309524Y-77311961D01*
X113309524Y-77311961D02*
X113261905Y-77216723D01*
X113261905Y-77216723D02*
X113214286Y-77026247D01*
X113214286Y-77026247D02*
X113214286Y-76883390D01*
X113214286Y-76883390D02*
X113261905Y-76692914D01*
X113261905Y-76692914D02*
X113309524Y-76597676D01*
X113309524Y-76597676D02*
X113404762Y-76502438D01*
X113404762Y-76502438D02*
X113547619Y-76454819D01*
X113547619Y-76454819D02*
X113642857Y-76454819D01*
X113642857Y-76454819D02*
X113785714Y-76502438D01*
X113785714Y-76502438D02*
X113833333Y-76550057D01*
X114785714Y-77454819D02*
X114214286Y-77454819D01*
X114500000Y-77454819D02*
X114500000Y-76454819D01*
X114500000Y-76454819D02*
X114404762Y-76597676D01*
X114404762Y-76597676D02*
X114309524Y-76692914D01*
X114309524Y-76692914D02*
X114214286Y-76740533D01*
D12*
X141032380Y-54513842D02*
X141213809Y-54574318D01*
X141213809Y-54574318D02*
X141516190Y-54574318D01*
X141516190Y-54574318D02*
X141637142Y-54513842D01*
X141637142Y-54513842D02*
X141697618Y-54453365D01*
X141697618Y-54453365D02*
X141758095Y-54332413D01*
X141758095Y-54332413D02*
X141758095Y-54211461D01*
X141758095Y-54211461D02*
X141697618Y-54090508D01*
X141697618Y-54090508D02*
X141637142Y-54030032D01*
X141637142Y-54030032D02*
X141516190Y-53969556D01*
X141516190Y-53969556D02*
X141274285Y-53909080D01*
X141274285Y-53909080D02*
X141153333Y-53848603D01*
X141153333Y-53848603D02*
X141092856Y-53788127D01*
X141092856Y-53788127D02*
X141032380Y-53667175D01*
X141032380Y-53667175D02*
X141032380Y-53546222D01*
X141032380Y-53546222D02*
X141092856Y-53425270D01*
X141092856Y-53425270D02*
X141153333Y-53364794D01*
X141153333Y-53364794D02*
X141274285Y-53304318D01*
X141274285Y-53304318D02*
X141576666Y-53304318D01*
X141576666Y-53304318D02*
X141758095Y-53364794D01*
X142967619Y-54574318D02*
X142241904Y-54574318D01*
X142604761Y-54574318D02*
X142604761Y-53304318D01*
X142604761Y-53304318D02*
X142483809Y-53485746D01*
X142483809Y-53485746D02*
X142362857Y-53606699D01*
X142362857Y-53606699D02*
X142241904Y-53667175D01*
D10*
X182454819Y-86086666D02*
X181978628Y-86419999D01*
X182454819Y-86658094D02*
X181454819Y-86658094D01*
X181454819Y-86658094D02*
X181454819Y-86277142D01*
X181454819Y-86277142D02*
X181502438Y-86181904D01*
X181502438Y-86181904D02*
X181550057Y-86134285D01*
X181550057Y-86134285D02*
X181645295Y-86086666D01*
X181645295Y-86086666D02*
X181788152Y-86086666D01*
X181788152Y-86086666D02*
X181883390Y-86134285D01*
X181883390Y-86134285D02*
X181931009Y-86181904D01*
X181931009Y-86181904D02*
X181978628Y-86277142D01*
X181978628Y-86277142D02*
X181978628Y-86658094D01*
X181788152Y-85229523D02*
X182454819Y-85229523D01*
X181407200Y-85467618D02*
X182121485Y-85705713D01*
X182121485Y-85705713D02*
X182121485Y-85086666D01*
X194454819Y-86086666D02*
X193978628Y-86419999D01*
X194454819Y-86658094D02*
X193454819Y-86658094D01*
X193454819Y-86658094D02*
X193454819Y-86277142D01*
X193454819Y-86277142D02*
X193502438Y-86181904D01*
X193502438Y-86181904D02*
X193550057Y-86134285D01*
X193550057Y-86134285D02*
X193645295Y-86086666D01*
X193645295Y-86086666D02*
X193788152Y-86086666D01*
X193788152Y-86086666D02*
X193883390Y-86134285D01*
X193883390Y-86134285D02*
X193931009Y-86181904D01*
X193931009Y-86181904D02*
X193978628Y-86277142D01*
X193978628Y-86277142D02*
X193978628Y-86658094D01*
X193454819Y-85181904D02*
X193454819Y-85658094D01*
X193454819Y-85658094D02*
X193931009Y-85705713D01*
X193931009Y-85705713D02*
X193883390Y-85658094D01*
X193883390Y-85658094D02*
X193835771Y-85562856D01*
X193835771Y-85562856D02*
X193835771Y-85324761D01*
X193835771Y-85324761D02*
X193883390Y-85229523D01*
X193883390Y-85229523D02*
X193931009Y-85181904D01*
X193931009Y-85181904D02*
X194026247Y-85134285D01*
X194026247Y-85134285D02*
X194264342Y-85134285D01*
X194264342Y-85134285D02*
X194359580Y-85181904D01*
X194359580Y-85181904D02*
X194407200Y-85229523D01*
X194407200Y-85229523D02*
X194454819Y-85324761D01*
X194454819Y-85324761D02*
X194454819Y-85562856D01*
X194454819Y-85562856D02*
X194407200Y-85658094D01*
X194407200Y-85658094D02*
X194359580Y-85705713D01*
X198869666Y-54080819D02*
X198869666Y-54795104D01*
X198869666Y-54795104D02*
X198822047Y-54937961D01*
X198822047Y-54937961D02*
X198726809Y-55033200D01*
X198726809Y-55033200D02*
X198583952Y-55080819D01*
X198583952Y-55080819D02*
X198488714Y-55080819D01*
X199298238Y-54176057D02*
X199345857Y-54128438D01*
X199345857Y-54128438D02*
X199441095Y-54080819D01*
X199441095Y-54080819D02*
X199679190Y-54080819D01*
X199679190Y-54080819D02*
X199774428Y-54128438D01*
X199774428Y-54128438D02*
X199822047Y-54176057D01*
X199822047Y-54176057D02*
X199869666Y-54271295D01*
X199869666Y-54271295D02*
X199869666Y-54366533D01*
X199869666Y-54366533D02*
X199822047Y-54509390D01*
X199822047Y-54509390D02*
X199250619Y-55080819D01*
X199250619Y-55080819D02*
X199869666Y-55080819D01*
X150833333Y-67359580D02*
X150785714Y-67407200D01*
X150785714Y-67407200D02*
X150642857Y-67454819D01*
X150642857Y-67454819D02*
X150547619Y-67454819D01*
X150547619Y-67454819D02*
X150404762Y-67407200D01*
X150404762Y-67407200D02*
X150309524Y-67311961D01*
X150309524Y-67311961D02*
X150261905Y-67216723D01*
X150261905Y-67216723D02*
X150214286Y-67026247D01*
X150214286Y-67026247D02*
X150214286Y-66883390D01*
X150214286Y-66883390D02*
X150261905Y-66692914D01*
X150261905Y-66692914D02*
X150309524Y-66597676D01*
X150309524Y-66597676D02*
X150404762Y-66502438D01*
X150404762Y-66502438D02*
X150547619Y-66454819D01*
X150547619Y-66454819D02*
X150642857Y-66454819D01*
X150642857Y-66454819D02*
X150785714Y-66502438D01*
X150785714Y-66502438D02*
X150833333Y-66550057D01*
X151690476Y-66454819D02*
X151500000Y-66454819D01*
X151500000Y-66454819D02*
X151404762Y-66502438D01*
X151404762Y-66502438D02*
X151357143Y-66550057D01*
X151357143Y-66550057D02*
X151261905Y-66692914D01*
X151261905Y-66692914D02*
X151214286Y-66883390D01*
X151214286Y-66883390D02*
X151214286Y-67264342D01*
X151214286Y-67264342D02*
X151261905Y-67359580D01*
X151261905Y-67359580D02*
X151309524Y-67407200D01*
X151309524Y-67407200D02*
X151404762Y-67454819D01*
X151404762Y-67454819D02*
X151595238Y-67454819D01*
X151595238Y-67454819D02*
X151690476Y-67407200D01*
X151690476Y-67407200D02*
X151738095Y-67359580D01*
X151738095Y-67359580D02*
X151785714Y-67264342D01*
X151785714Y-67264342D02*
X151785714Y-67026247D01*
X151785714Y-67026247D02*
X151738095Y-66931009D01*
X151738095Y-66931009D02*
X151690476Y-66883390D01*
X151690476Y-66883390D02*
X151595238Y-66835771D01*
X151595238Y-66835771D02*
X151404762Y-66835771D01*
X151404762Y-66835771D02*
X151309524Y-66883390D01*
X151309524Y-66883390D02*
X151261905Y-66931009D01*
X151261905Y-66931009D02*
X151214286Y-67026247D01*
X185454819Y-86086666D02*
X184978628Y-86419999D01*
X185454819Y-86658094D02*
X184454819Y-86658094D01*
X184454819Y-86658094D02*
X184454819Y-86277142D01*
X184454819Y-86277142D02*
X184502438Y-86181904D01*
X184502438Y-86181904D02*
X184550057Y-86134285D01*
X184550057Y-86134285D02*
X184645295Y-86086666D01*
X184645295Y-86086666D02*
X184788152Y-86086666D01*
X184788152Y-86086666D02*
X184883390Y-86134285D01*
X184883390Y-86134285D02*
X184931009Y-86181904D01*
X184931009Y-86181904D02*
X184978628Y-86277142D01*
X184978628Y-86277142D02*
X184978628Y-86658094D01*
X184550057Y-85705713D02*
X184502438Y-85658094D01*
X184502438Y-85658094D02*
X184454819Y-85562856D01*
X184454819Y-85562856D02*
X184454819Y-85324761D01*
X184454819Y-85324761D02*
X184502438Y-85229523D01*
X184502438Y-85229523D02*
X184550057Y-85181904D01*
X184550057Y-85181904D02*
X184645295Y-85134285D01*
X184645295Y-85134285D02*
X184740533Y-85134285D01*
X184740533Y-85134285D02*
X184883390Y-85181904D01*
X184883390Y-85181904D02*
X185454819Y-85753332D01*
X185454819Y-85753332D02*
X185454819Y-85134285D01*
X188454819Y-86086666D02*
X187978628Y-86419999D01*
X188454819Y-86658094D02*
X187454819Y-86658094D01*
X187454819Y-86658094D02*
X187454819Y-86277142D01*
X187454819Y-86277142D02*
X187502438Y-86181904D01*
X187502438Y-86181904D02*
X187550057Y-86134285D01*
X187550057Y-86134285D02*
X187645295Y-86086666D01*
X187645295Y-86086666D02*
X187788152Y-86086666D01*
X187788152Y-86086666D02*
X187883390Y-86134285D01*
X187883390Y-86134285D02*
X187931009Y-86181904D01*
X187931009Y-86181904D02*
X187978628Y-86277142D01*
X187978628Y-86277142D02*
X187978628Y-86658094D01*
X188454819Y-85134285D02*
X188454819Y-85705713D01*
X188454819Y-85419999D02*
X187454819Y-85419999D01*
X187454819Y-85419999D02*
X187597676Y-85515237D01*
X187597676Y-85515237D02*
X187692914Y-85610475D01*
X187692914Y-85610475D02*
X187740533Y-85705713D01*
X115749185Y-58826681D02*
X115883872Y-58759338D01*
X115883872Y-58759338D02*
X116052231Y-58590979D01*
X116052231Y-58590979D02*
X116085903Y-58489964D01*
X116085903Y-58489964D02*
X116085903Y-58422620D01*
X116085903Y-58422620D02*
X116052231Y-58321605D01*
X116052231Y-58321605D02*
X115984888Y-58254262D01*
X115984888Y-58254262D02*
X115883872Y-58220590D01*
X115883872Y-58220590D02*
X115816529Y-58220590D01*
X115816529Y-58220590D02*
X115715514Y-58254262D01*
X115715514Y-58254262D02*
X115547155Y-58355277D01*
X115547155Y-58355277D02*
X115446140Y-58388949D01*
X115446140Y-58388949D02*
X115378796Y-58388949D01*
X115378796Y-58388949D02*
X115277781Y-58355277D01*
X115277781Y-58355277D02*
X115210437Y-58287933D01*
X115210437Y-58287933D02*
X115176766Y-58186918D01*
X115176766Y-58186918D02*
X115176766Y-58119575D01*
X115176766Y-58119575D02*
X115210437Y-58018559D01*
X115210437Y-58018559D02*
X115378796Y-57850201D01*
X115378796Y-57850201D02*
X115513483Y-57782857D01*
X115816529Y-57547155D02*
X115816529Y-57479811D01*
X115816529Y-57479811D02*
X115850201Y-57378796D01*
X115850201Y-57378796D02*
X116018559Y-57210437D01*
X116018559Y-57210437D02*
X116119575Y-57176766D01*
X116119575Y-57176766D02*
X116186918Y-57176766D01*
X116186918Y-57176766D02*
X116287933Y-57210437D01*
X116287933Y-57210437D02*
X116355277Y-57277781D01*
X116355277Y-57277781D02*
X116422620Y-57412468D01*
X116422620Y-57412468D02*
X116422620Y-58220590D01*
X116422620Y-58220590D02*
X116860353Y-57782857D01*
X157048095Y-80344819D02*
X157048095Y-81154342D01*
X157048095Y-81154342D02*
X157095714Y-81249580D01*
X157095714Y-81249580D02*
X157143333Y-81297200D01*
X157143333Y-81297200D02*
X157238571Y-81344819D01*
X157238571Y-81344819D02*
X157429047Y-81344819D01*
X157429047Y-81344819D02*
X157524285Y-81297200D01*
X157524285Y-81297200D02*
X157571904Y-81249580D01*
X157571904Y-81249580D02*
X157619523Y-81154342D01*
X157619523Y-81154342D02*
X157619523Y-80344819D01*
X158000476Y-80344819D02*
X158619523Y-80344819D01*
X158619523Y-80344819D02*
X158286190Y-80725771D01*
X158286190Y-80725771D02*
X158429047Y-80725771D01*
X158429047Y-80725771D02*
X158524285Y-80773390D01*
X158524285Y-80773390D02*
X158571904Y-80821009D01*
X158571904Y-80821009D02*
X158619523Y-80916247D01*
X158619523Y-80916247D02*
X158619523Y-81154342D01*
X158619523Y-81154342D02*
X158571904Y-81249580D01*
X158571904Y-81249580D02*
X158524285Y-81297200D01*
X158524285Y-81297200D02*
X158429047Y-81344819D01*
X158429047Y-81344819D02*
X158143333Y-81344819D01*
X158143333Y-81344819D02*
X158048095Y-81297200D01*
X158048095Y-81297200D02*
X158000476Y-81249580D01*
X164833333Y-54454819D02*
X164500000Y-53978628D01*
X164261905Y-54454819D02*
X164261905Y-53454819D01*
X164261905Y-53454819D02*
X164642857Y-53454819D01*
X164642857Y-53454819D02*
X164738095Y-53502438D01*
X164738095Y-53502438D02*
X164785714Y-53550057D01*
X164785714Y-53550057D02*
X164833333Y-53645295D01*
X164833333Y-53645295D02*
X164833333Y-53788152D01*
X164833333Y-53788152D02*
X164785714Y-53883390D01*
X164785714Y-53883390D02*
X164738095Y-53931009D01*
X164738095Y-53931009D02*
X164642857Y-53978628D01*
X164642857Y-53978628D02*
X164261905Y-53978628D01*
X165404762Y-53883390D02*
X165309524Y-53835771D01*
X165309524Y-53835771D02*
X165261905Y-53788152D01*
X165261905Y-53788152D02*
X165214286Y-53692914D01*
X165214286Y-53692914D02*
X165214286Y-53645295D01*
X165214286Y-53645295D02*
X165261905Y-53550057D01*
X165261905Y-53550057D02*
X165309524Y-53502438D01*
X165309524Y-53502438D02*
X165404762Y-53454819D01*
X165404762Y-53454819D02*
X165595238Y-53454819D01*
X165595238Y-53454819D02*
X165690476Y-53502438D01*
X165690476Y-53502438D02*
X165738095Y-53550057D01*
X165738095Y-53550057D02*
X165785714Y-53645295D01*
X165785714Y-53645295D02*
X165785714Y-53692914D01*
X165785714Y-53692914D02*
X165738095Y-53788152D01*
X165738095Y-53788152D02*
X165690476Y-53835771D01*
X165690476Y-53835771D02*
X165595238Y-53883390D01*
X165595238Y-53883390D02*
X165404762Y-53883390D01*
X165404762Y-53883390D02*
X165309524Y-53931009D01*
X165309524Y-53931009D02*
X165261905Y-53978628D01*
X165261905Y-53978628D02*
X165214286Y-54073866D01*
X165214286Y-54073866D02*
X165214286Y-54264342D01*
X165214286Y-54264342D02*
X165261905Y-54359580D01*
X165261905Y-54359580D02*
X165309524Y-54407200D01*
X165309524Y-54407200D02*
X165404762Y-54454819D01*
X165404762Y-54454819D02*
X165595238Y-54454819D01*
X165595238Y-54454819D02*
X165690476Y-54407200D01*
X165690476Y-54407200D02*
X165738095Y-54359580D01*
X165738095Y-54359580D02*
X165785714Y-54264342D01*
X165785714Y-54264342D02*
X165785714Y-54073866D01*
X165785714Y-54073866D02*
X165738095Y-53978628D01*
X165738095Y-53978628D02*
X165690476Y-53931009D01*
X165690476Y-53931009D02*
X165595238Y-53883390D01*
X164833333Y-57454819D02*
X164500000Y-56978628D01*
X164261905Y-57454819D02*
X164261905Y-56454819D01*
X164261905Y-56454819D02*
X164642857Y-56454819D01*
X164642857Y-56454819D02*
X164738095Y-56502438D01*
X164738095Y-56502438D02*
X164785714Y-56550057D01*
X164785714Y-56550057D02*
X164833333Y-56645295D01*
X164833333Y-56645295D02*
X164833333Y-56788152D01*
X164833333Y-56788152D02*
X164785714Y-56883390D01*
X164785714Y-56883390D02*
X164738095Y-56931009D01*
X164738095Y-56931009D02*
X164642857Y-56978628D01*
X164642857Y-56978628D02*
X164261905Y-56978628D01*
X165166667Y-56454819D02*
X165833333Y-56454819D01*
X165833333Y-56454819D02*
X165404762Y-57454819D01*
X150583333Y-60609580D02*
X150535714Y-60657200D01*
X150535714Y-60657200D02*
X150392857Y-60704819D01*
X150392857Y-60704819D02*
X150297619Y-60704819D01*
X150297619Y-60704819D02*
X150154762Y-60657200D01*
X150154762Y-60657200D02*
X150059524Y-60561961D01*
X150059524Y-60561961D02*
X150011905Y-60466723D01*
X150011905Y-60466723D02*
X149964286Y-60276247D01*
X149964286Y-60276247D02*
X149964286Y-60133390D01*
X149964286Y-60133390D02*
X150011905Y-59942914D01*
X150011905Y-59942914D02*
X150059524Y-59847676D01*
X150059524Y-59847676D02*
X150154762Y-59752438D01*
X150154762Y-59752438D02*
X150297619Y-59704819D01*
X150297619Y-59704819D02*
X150392857Y-59704819D01*
X150392857Y-59704819D02*
X150535714Y-59752438D01*
X150535714Y-59752438D02*
X150583333Y-59800057D01*
X150916667Y-59704819D02*
X151583333Y-59704819D01*
X151583333Y-59704819D02*
X151154762Y-60704819D01*
X182454819Y-58246666D02*
X181978628Y-58579999D01*
X182454819Y-58818094D02*
X181454819Y-58818094D01*
X181454819Y-58818094D02*
X181454819Y-58437142D01*
X181454819Y-58437142D02*
X181502438Y-58341904D01*
X181502438Y-58341904D02*
X181550057Y-58294285D01*
X181550057Y-58294285D02*
X181645295Y-58246666D01*
X181645295Y-58246666D02*
X181788152Y-58246666D01*
X181788152Y-58246666D02*
X181883390Y-58294285D01*
X181883390Y-58294285D02*
X181931009Y-58341904D01*
X181931009Y-58341904D02*
X181978628Y-58437142D01*
X181978628Y-58437142D02*
X181978628Y-58818094D01*
X182454819Y-57770475D02*
X182454819Y-57579999D01*
X182454819Y-57579999D02*
X182407200Y-57484761D01*
X182407200Y-57484761D02*
X182359580Y-57437142D01*
X182359580Y-57437142D02*
X182216723Y-57341904D01*
X182216723Y-57341904D02*
X182026247Y-57294285D01*
X182026247Y-57294285D02*
X181645295Y-57294285D01*
X181645295Y-57294285D02*
X181550057Y-57341904D01*
X181550057Y-57341904D02*
X181502438Y-57389523D01*
X181502438Y-57389523D02*
X181454819Y-57484761D01*
X181454819Y-57484761D02*
X181454819Y-57675237D01*
X181454819Y-57675237D02*
X181502438Y-57770475D01*
X181502438Y-57770475D02*
X181550057Y-57818094D01*
X181550057Y-57818094D02*
X181645295Y-57865713D01*
X181645295Y-57865713D02*
X181883390Y-57865713D01*
X181883390Y-57865713D02*
X181978628Y-57818094D01*
X181978628Y-57818094D02*
X182026247Y-57770475D01*
X182026247Y-57770475D02*
X182073866Y-57675237D01*
X182073866Y-57675237D02*
X182073866Y-57484761D01*
X182073866Y-57484761D02*
X182026247Y-57389523D01*
X182026247Y-57389523D02*
X181978628Y-57341904D01*
X181978628Y-57341904D02*
X181883390Y-57294285D01*
X139833333Y-84359580D02*
X139785714Y-84407200D01*
X139785714Y-84407200D02*
X139642857Y-84454819D01*
X139642857Y-84454819D02*
X139547619Y-84454819D01*
X139547619Y-84454819D02*
X139404762Y-84407200D01*
X139404762Y-84407200D02*
X139309524Y-84311961D01*
X139309524Y-84311961D02*
X139261905Y-84216723D01*
X139261905Y-84216723D02*
X139214286Y-84026247D01*
X139214286Y-84026247D02*
X139214286Y-83883390D01*
X139214286Y-83883390D02*
X139261905Y-83692914D01*
X139261905Y-83692914D02*
X139309524Y-83597676D01*
X139309524Y-83597676D02*
X139404762Y-83502438D01*
X139404762Y-83502438D02*
X139547619Y-83454819D01*
X139547619Y-83454819D02*
X139642857Y-83454819D01*
X139642857Y-83454819D02*
X139785714Y-83502438D01*
X139785714Y-83502438D02*
X139833333Y-83550057D01*
X140738095Y-83454819D02*
X140261905Y-83454819D01*
X140261905Y-83454819D02*
X140214286Y-83931009D01*
X140214286Y-83931009D02*
X140261905Y-83883390D01*
X140261905Y-83883390D02*
X140357143Y-83835771D01*
X140357143Y-83835771D02*
X140595238Y-83835771D01*
X140595238Y-83835771D02*
X140690476Y-83883390D01*
X140690476Y-83883390D02*
X140738095Y-83931009D01*
X140738095Y-83931009D02*
X140785714Y-84026247D01*
X140785714Y-84026247D02*
X140785714Y-84264342D01*
X140785714Y-84264342D02*
X140738095Y-84359580D01*
X140738095Y-84359580D02*
X140690476Y-84407200D01*
X140690476Y-84407200D02*
X140595238Y-84454819D01*
X140595238Y-84454819D02*
X140357143Y-84454819D01*
X140357143Y-84454819D02*
X140261905Y-84407200D01*
X140261905Y-84407200D02*
X140214286Y-84359580D01*
X191454819Y-86086666D02*
X190978628Y-86419999D01*
X191454819Y-86658094D02*
X190454819Y-86658094D01*
X190454819Y-86658094D02*
X190454819Y-86277142D01*
X190454819Y-86277142D02*
X190502438Y-86181904D01*
X190502438Y-86181904D02*
X190550057Y-86134285D01*
X190550057Y-86134285D02*
X190645295Y-86086666D01*
X190645295Y-86086666D02*
X190788152Y-86086666D01*
X190788152Y-86086666D02*
X190883390Y-86134285D01*
X190883390Y-86134285D02*
X190931009Y-86181904D01*
X190931009Y-86181904D02*
X190978628Y-86277142D01*
X190978628Y-86277142D02*
X190978628Y-86658094D01*
X190454819Y-85753332D02*
X190454819Y-85134285D01*
X190454819Y-85134285D02*
X190835771Y-85467618D01*
X190835771Y-85467618D02*
X190835771Y-85324761D01*
X190835771Y-85324761D02*
X190883390Y-85229523D01*
X190883390Y-85229523D02*
X190931009Y-85181904D01*
X190931009Y-85181904D02*
X191026247Y-85134285D01*
X191026247Y-85134285D02*
X191264342Y-85134285D01*
X191264342Y-85134285D02*
X191359580Y-85181904D01*
X191359580Y-85181904D02*
X191407200Y-85229523D01*
X191407200Y-85229523D02*
X191454819Y-85324761D01*
X191454819Y-85324761D02*
X191454819Y-85610475D01*
X191454819Y-85610475D02*
X191407200Y-85705713D01*
X191407200Y-85705713D02*
X191359580Y-85753332D01*
X197454819Y-86086666D02*
X196978628Y-86419999D01*
X197454819Y-86658094D02*
X196454819Y-86658094D01*
X196454819Y-86658094D02*
X196454819Y-86277142D01*
X196454819Y-86277142D02*
X196502438Y-86181904D01*
X196502438Y-86181904D02*
X196550057Y-86134285D01*
X196550057Y-86134285D02*
X196645295Y-86086666D01*
X196645295Y-86086666D02*
X196788152Y-86086666D01*
X196788152Y-86086666D02*
X196883390Y-86134285D01*
X196883390Y-86134285D02*
X196931009Y-86181904D01*
X196931009Y-86181904D02*
X196978628Y-86277142D01*
X196978628Y-86277142D02*
X196978628Y-86658094D01*
X196454819Y-85229523D02*
X196454819Y-85419999D01*
X196454819Y-85419999D02*
X196502438Y-85515237D01*
X196502438Y-85515237D02*
X196550057Y-85562856D01*
X196550057Y-85562856D02*
X196692914Y-85658094D01*
X196692914Y-85658094D02*
X196883390Y-85705713D01*
X196883390Y-85705713D02*
X197264342Y-85705713D01*
X197264342Y-85705713D02*
X197359580Y-85658094D01*
X197359580Y-85658094D02*
X197407200Y-85610475D01*
X197407200Y-85610475D02*
X197454819Y-85515237D01*
X197454819Y-85515237D02*
X197454819Y-85324761D01*
X197454819Y-85324761D02*
X197407200Y-85229523D01*
X197407200Y-85229523D02*
X197359580Y-85181904D01*
X197359580Y-85181904D02*
X197264342Y-85134285D01*
X197264342Y-85134285D02*
X197026247Y-85134285D01*
X197026247Y-85134285D02*
X196931009Y-85181904D01*
X196931009Y-85181904D02*
X196883390Y-85229523D01*
X196883390Y-85229523D02*
X196835771Y-85324761D01*
X196835771Y-85324761D02*
X196835771Y-85515237D01*
X196835771Y-85515237D02*
X196883390Y-85610475D01*
X196883390Y-85610475D02*
X196931009Y-85658094D01*
X196931009Y-85658094D02*
X197026247Y-85705713D01*
X185454819Y-58722857D02*
X184978628Y-59056190D01*
X185454819Y-59294285D02*
X184454819Y-59294285D01*
X184454819Y-59294285D02*
X184454819Y-58913333D01*
X184454819Y-58913333D02*
X184502438Y-58818095D01*
X184502438Y-58818095D02*
X184550057Y-58770476D01*
X184550057Y-58770476D02*
X184645295Y-58722857D01*
X184645295Y-58722857D02*
X184788152Y-58722857D01*
X184788152Y-58722857D02*
X184883390Y-58770476D01*
X184883390Y-58770476D02*
X184931009Y-58818095D01*
X184931009Y-58818095D02*
X184978628Y-58913333D01*
X184978628Y-58913333D02*
X184978628Y-59294285D01*
X185454819Y-57770476D02*
X185454819Y-58341904D01*
X185454819Y-58056190D02*
X184454819Y-58056190D01*
X184454819Y-58056190D02*
X184597676Y-58151428D01*
X184597676Y-58151428D02*
X184692914Y-58246666D01*
X184692914Y-58246666D02*
X184740533Y-58341904D01*
X184454819Y-57151428D02*
X184454819Y-57056190D01*
X184454819Y-57056190D02*
X184502438Y-56960952D01*
X184502438Y-56960952D02*
X184550057Y-56913333D01*
X184550057Y-56913333D02*
X184645295Y-56865714D01*
X184645295Y-56865714D02*
X184835771Y-56818095D01*
X184835771Y-56818095D02*
X185073866Y-56818095D01*
X185073866Y-56818095D02*
X185264342Y-56865714D01*
X185264342Y-56865714D02*
X185359580Y-56913333D01*
X185359580Y-56913333D02*
X185407200Y-56960952D01*
X185407200Y-56960952D02*
X185454819Y-57056190D01*
X185454819Y-57056190D02*
X185454819Y-57151428D01*
X185454819Y-57151428D02*
X185407200Y-57246666D01*
X185407200Y-57246666D02*
X185359580Y-57294285D01*
X185359580Y-57294285D02*
X185264342Y-57341904D01*
X185264342Y-57341904D02*
X185073866Y-57389523D01*
X185073866Y-57389523D02*
X184835771Y-57389523D01*
X184835771Y-57389523D02*
X184645295Y-57341904D01*
X184645295Y-57341904D02*
X184550057Y-57294285D01*
X184550057Y-57294285D02*
X184502438Y-57246666D01*
X184502438Y-57246666D02*
X184454819Y-57151428D01*
X171048095Y-80344819D02*
X171048095Y-81154342D01*
X171048095Y-81154342D02*
X171095714Y-81249580D01*
X171095714Y-81249580D02*
X171143333Y-81297200D01*
X171143333Y-81297200D02*
X171238571Y-81344819D01*
X171238571Y-81344819D02*
X171429047Y-81344819D01*
X171429047Y-81344819D02*
X171524285Y-81297200D01*
X171524285Y-81297200D02*
X171571904Y-81249580D01*
X171571904Y-81249580D02*
X171619523Y-81154342D01*
X171619523Y-81154342D02*
X171619523Y-80344819D01*
X172524285Y-80678152D02*
X172524285Y-81344819D01*
X172286190Y-80297200D02*
X172048095Y-81011485D01*
X172048095Y-81011485D02*
X172667142Y-81011485D01*
X126428095Y-84264819D02*
X126428095Y-85074342D01*
X126428095Y-85074342D02*
X126475714Y-85169580D01*
X126475714Y-85169580D02*
X126523333Y-85217200D01*
X126523333Y-85217200D02*
X126618571Y-85264819D01*
X126618571Y-85264819D02*
X126809047Y-85264819D01*
X126809047Y-85264819D02*
X126904285Y-85217200D01*
X126904285Y-85217200D02*
X126951904Y-85169580D01*
X126951904Y-85169580D02*
X126999523Y-85074342D01*
X126999523Y-85074342D02*
X126999523Y-84264819D01*
X127428095Y-84360057D02*
X127475714Y-84312438D01*
X127475714Y-84312438D02*
X127570952Y-84264819D01*
X127570952Y-84264819D02*
X127809047Y-84264819D01*
X127809047Y-84264819D02*
X127904285Y-84312438D01*
X127904285Y-84312438D02*
X127951904Y-84360057D01*
X127951904Y-84360057D02*
X127999523Y-84455295D01*
X127999523Y-84455295D02*
X127999523Y-84550533D01*
X127999523Y-84550533D02*
X127951904Y-84693390D01*
X127951904Y-84693390D02*
X127380476Y-85264819D01*
X127380476Y-85264819D02*
X127999523Y-85264819D01*
D13*
X121420000Y-69580000D02*
X137310000Y-69580000D01*
X121420000Y-69580000D02*
X121420000Y-59340000D01*
X121420000Y-59340000D02*
X137310000Y-59340000D01*
X137310000Y-69580000D02*
X137310000Y-59340000D01*
X137310000Y-64460000D02*
X139850000Y-64460000D01*
X137310000Y-61920000D02*
X139850000Y-61920000D01*
X137310000Y-67000000D02*
X139850000Y-67000000D01*
X135880000Y-90160000D02*
X135880000Y-88944000D01*
X134599000Y-92351000D02*
X134599000Y-91840000D01*
X134759000Y-92516000D02*
X134759000Y-91840000D01*
X134439000Y-90160000D02*
X134439000Y-89858000D01*
X134639000Y-92396000D02*
X134639000Y-91840000D01*
X134719000Y-92478000D02*
X134719000Y-91840000D01*
X134759000Y-90160000D02*
X134759000Y-89484000D01*
X135920000Y-90160000D02*
X135920000Y-88938000D01*
X135279000Y-90160000D02*
X135279000Y-89130000D01*
X135600000Y-90160000D02*
X135600000Y-89006000D01*
X135760000Y-93034000D02*
X135760000Y-91840000D01*
X134159000Y-91537000D02*
X134159000Y-90463000D01*
X134119000Y-91370000D02*
X134119000Y-90630000D01*
X136120000Y-93079000D02*
X136120000Y-88921000D01*
X136000000Y-93071000D02*
X136000000Y-91840000D01*
X135439000Y-92940000D02*
X135439000Y-91840000D01*
X134319000Y-91940000D02*
X134319000Y-90060000D01*
X134679000Y-92438000D02*
X134679000Y-91840000D01*
X134959000Y-92680000D02*
X134959000Y-91840000D01*
X135520000Y-92968000D02*
X135520000Y-91840000D01*
X135439000Y-90160000D02*
X135439000Y-89060000D01*
X135479000Y-92954000D02*
X135479000Y-91840000D01*
X136080000Y-93077000D02*
X136080000Y-88923000D01*
X136160000Y-93080000D02*
X136160000Y-88920000D01*
X135960000Y-93067000D02*
X135960000Y-91840000D01*
X135239000Y-92851000D02*
X135239000Y-91840000D01*
X134719000Y-90160000D02*
X134719000Y-89522000D01*
X135279000Y-92870000D02*
X135279000Y-91840000D01*
X135720000Y-90160000D02*
X135720000Y-88975000D01*
X135119000Y-90160000D02*
X135119000Y-89215000D01*
X134519000Y-92254000D02*
X134519000Y-91840000D01*
X135039000Y-92735000D02*
X135039000Y-91840000D01*
X134999000Y-90160000D02*
X134999000Y-89292000D01*
X135840000Y-90160000D02*
X135840000Y-88950000D01*
X135640000Y-90160000D02*
X135640000Y-88995000D01*
X135159000Y-90160000D02*
X135159000Y-89192000D01*
X135680000Y-90160000D02*
X135680000Y-88984000D01*
X135560000Y-90160000D02*
X135560000Y-89018000D01*
X134679000Y-90160000D02*
X134679000Y-89562000D01*
X135479000Y-90160000D02*
X135479000Y-89046000D01*
X135359000Y-90160000D02*
X135359000Y-89093000D01*
X134479000Y-90160000D02*
X134479000Y-89800000D01*
X134559000Y-92304000D02*
X134559000Y-91840000D01*
X134799000Y-92552000D02*
X134799000Y-91840000D01*
X134839000Y-90160000D02*
X134839000Y-89413000D01*
X134519000Y-90160000D02*
X134519000Y-89746000D01*
X134359000Y-92013000D02*
X134359000Y-89987000D01*
X134879000Y-92619000D02*
X134879000Y-91840000D01*
X135079000Y-90160000D02*
X135079000Y-89240000D01*
X135079000Y-92760000D02*
X135079000Y-91840000D01*
X134479000Y-92200000D02*
X134479000Y-91840000D01*
X135199000Y-92830000D02*
X135199000Y-91840000D01*
X135319000Y-92889000D02*
X135319000Y-91840000D01*
X135039000Y-90160000D02*
X135039000Y-89265000D01*
X135399000Y-92924000D02*
X135399000Y-91840000D01*
X134559000Y-90160000D02*
X134559000Y-89696000D01*
X135760000Y-90160000D02*
X135760000Y-88966000D01*
X134959000Y-90160000D02*
X134959000Y-89320000D01*
X138469801Y-92195000D02*
X138069801Y-92195000D01*
X135880000Y-93056000D02*
X135880000Y-91840000D01*
X134239000Y-91768000D02*
X134239000Y-90232000D01*
X135560000Y-92982000D02*
X135560000Y-91840000D01*
X138269801Y-92395000D02*
X138269801Y-91995000D01*
X135239000Y-90160000D02*
X135239000Y-89149000D01*
X135159000Y-92808000D02*
X135159000Y-91840000D01*
X135800000Y-93042000D02*
X135800000Y-91840000D01*
X134639000Y-90160000D02*
X134639000Y-89604000D01*
X135119000Y-92785000D02*
X135119000Y-91840000D01*
X134839000Y-92587000D02*
X134839000Y-91840000D01*
X135399000Y-90160000D02*
X135399000Y-89076000D01*
X134879000Y-90160000D02*
X134879000Y-89381000D01*
X135600000Y-92994000D02*
X135600000Y-91840000D01*
X135800000Y-90160000D02*
X135800000Y-88958000D01*
X135359000Y-92907000D02*
X135359000Y-91840000D01*
X136040000Y-93074000D02*
X136040000Y-88926000D01*
X135520000Y-90160000D02*
X135520000Y-89032000D01*
X135199000Y-90160000D02*
X135199000Y-89170000D01*
X134919000Y-90160000D02*
X134919000Y-89350000D01*
X134399000Y-90160000D02*
X134399000Y-89920000D01*
X134399000Y-92080000D02*
X134399000Y-91840000D01*
X135319000Y-90160000D02*
X135319000Y-89111000D01*
X136200000Y-93080000D02*
X136200000Y-88920000D01*
X134999000Y-92708000D02*
X134999000Y-91840000D01*
X134199000Y-91664000D02*
X134199000Y-90336000D01*
X135960000Y-90160000D02*
X135960000Y-88933000D01*
X134799000Y-90160000D02*
X134799000Y-89448000D01*
X134279000Y-91859000D02*
X134279000Y-90141000D01*
X136000000Y-90160000D02*
X136000000Y-88929000D01*
X135680000Y-93016000D02*
X135680000Y-91840000D01*
X134599000Y-90160000D02*
X134599000Y-89649000D01*
X135840000Y-93050000D02*
X135840000Y-91840000D01*
X134439000Y-92142000D02*
X134439000Y-91840000D01*
X135720000Y-93025000D02*
X135720000Y-91840000D01*
X134919000Y-92650000D02*
X134919000Y-91840000D01*
X135640000Y-93005000D02*
X135640000Y-91840000D01*
X135920000Y-93062000D02*
X135920000Y-91840000D01*
X138320000Y-91000000D02*
G75*
G03*
X134080000Y-91000000I-2120000J0D01*
G01*
X134080000Y-91000000D02*
G75*
G03*
X138320000Y-91000000I2120000J0D01*
G01*
X136720000Y-77840000D02*
X136720000Y-79056000D01*
X138001000Y-75649000D02*
X138001000Y-76160000D01*
X137841000Y-75484000D02*
X137841000Y-76160000D01*
X138161000Y-77840000D02*
X138161000Y-78142000D01*
X137961000Y-75604000D02*
X137961000Y-76160000D01*
X137881000Y-75522000D02*
X137881000Y-76160000D01*
X137841000Y-77840000D02*
X137841000Y-78516000D01*
X136680000Y-77840000D02*
X136680000Y-79062000D01*
X137321000Y-77840000D02*
X137321000Y-78870000D01*
X137000000Y-77840000D02*
X137000000Y-78994000D01*
X136840000Y-74966000D02*
X136840000Y-76160000D01*
X138441000Y-76463000D02*
X138441000Y-77537000D01*
X138481000Y-76630000D02*
X138481000Y-77370000D01*
X136480000Y-74921000D02*
X136480000Y-79079000D01*
X136600000Y-74929000D02*
X136600000Y-76160000D01*
X137161000Y-75060000D02*
X137161000Y-76160000D01*
X138281000Y-76060000D02*
X138281000Y-77940000D01*
X137921000Y-75562000D02*
X137921000Y-76160000D01*
X137641000Y-75320000D02*
X137641000Y-76160000D01*
X137080000Y-75032000D02*
X137080000Y-76160000D01*
X137161000Y-77840000D02*
X137161000Y-78940000D01*
X137121000Y-75046000D02*
X137121000Y-76160000D01*
X136520000Y-74923000D02*
X136520000Y-79077000D01*
X136440000Y-74920000D02*
X136440000Y-79080000D01*
X136640000Y-74933000D02*
X136640000Y-76160000D01*
X137361000Y-75149000D02*
X137361000Y-76160000D01*
X137881000Y-77840000D02*
X137881000Y-78478000D01*
X137321000Y-75130000D02*
X137321000Y-76160000D01*
X136880000Y-77840000D02*
X136880000Y-79025000D01*
X137481000Y-77840000D02*
X137481000Y-78785000D01*
X138081000Y-75746000D02*
X138081000Y-76160000D01*
X137561000Y-75265000D02*
X137561000Y-76160000D01*
X137601000Y-77840000D02*
X137601000Y-78708000D01*
X136760000Y-77840000D02*
X136760000Y-79050000D01*
X136960000Y-77840000D02*
X136960000Y-79005000D01*
X137441000Y-77840000D02*
X137441000Y-78808000D01*
X136920000Y-77840000D02*
X136920000Y-79016000D01*
X137040000Y-77840000D02*
X137040000Y-78982000D01*
X137921000Y-77840000D02*
X137921000Y-78438000D01*
X137121000Y-77840000D02*
X137121000Y-78954000D01*
X137241000Y-77840000D02*
X137241000Y-78907000D01*
X138121000Y-77840000D02*
X138121000Y-78200000D01*
X138041000Y-75696000D02*
X138041000Y-76160000D01*
X137801000Y-75448000D02*
X137801000Y-76160000D01*
X137761000Y-77840000D02*
X137761000Y-78587000D01*
X138081000Y-77840000D02*
X138081000Y-78254000D01*
X138241000Y-75987000D02*
X138241000Y-78013000D01*
X137721000Y-75381000D02*
X137721000Y-76160000D01*
X137521000Y-77840000D02*
X137521000Y-78760000D01*
X137521000Y-75240000D02*
X137521000Y-76160000D01*
X138121000Y-75800000D02*
X138121000Y-76160000D01*
X137401000Y-75170000D02*
X137401000Y-76160000D01*
X137281000Y-75111000D02*
X137281000Y-76160000D01*
X137561000Y-77840000D02*
X137561000Y-78735000D01*
X137201000Y-75076000D02*
X137201000Y-76160000D01*
X138041000Y-77840000D02*
X138041000Y-78304000D01*
X136840000Y-77840000D02*
X136840000Y-79034000D01*
X137641000Y-77840000D02*
X137641000Y-78680000D01*
X134130199Y-75805000D02*
X134530199Y-75805000D01*
X136720000Y-74944000D02*
X136720000Y-76160000D01*
X138361000Y-76232000D02*
X138361000Y-77768000D01*
X137040000Y-75018000D02*
X137040000Y-76160000D01*
X134330199Y-75605000D02*
X134330199Y-76005000D01*
X137361000Y-77840000D02*
X137361000Y-78851000D01*
X137441000Y-75192000D02*
X137441000Y-76160000D01*
X136800000Y-74958000D02*
X136800000Y-76160000D01*
X137961000Y-77840000D02*
X137961000Y-78396000D01*
X137481000Y-75215000D02*
X137481000Y-76160000D01*
X137761000Y-75413000D02*
X137761000Y-76160000D01*
X137201000Y-77840000D02*
X137201000Y-78924000D01*
X137721000Y-77840000D02*
X137721000Y-78619000D01*
X137000000Y-75006000D02*
X137000000Y-76160000D01*
X136800000Y-77840000D02*
X136800000Y-79042000D01*
X137241000Y-75093000D02*
X137241000Y-76160000D01*
X136560000Y-74926000D02*
X136560000Y-79074000D01*
X137080000Y-77840000D02*
X137080000Y-78968000D01*
X137401000Y-77840000D02*
X137401000Y-78830000D01*
X137681000Y-77840000D02*
X137681000Y-78650000D01*
X138201000Y-77840000D02*
X138201000Y-78080000D01*
X138201000Y-75920000D02*
X138201000Y-76160000D01*
X137281000Y-77840000D02*
X137281000Y-78889000D01*
X136400000Y-74920000D02*
X136400000Y-79080000D01*
X137601000Y-75292000D02*
X137601000Y-76160000D01*
X138401000Y-76336000D02*
X138401000Y-77664000D01*
X136640000Y-77840000D02*
X136640000Y-79067000D01*
X137801000Y-77840000D02*
X137801000Y-78552000D01*
X138321000Y-76141000D02*
X138321000Y-77859000D01*
X136600000Y-77840000D02*
X136600000Y-79071000D01*
X136920000Y-74984000D02*
X136920000Y-76160000D01*
X138001000Y-77840000D02*
X138001000Y-78351000D01*
X136760000Y-74950000D02*
X136760000Y-76160000D01*
X138161000Y-75858000D02*
X138161000Y-76160000D01*
X136880000Y-74975000D02*
X136880000Y-76160000D01*
X137681000Y-75350000D02*
X137681000Y-76160000D01*
X136960000Y-74995000D02*
X136960000Y-76160000D01*
X136680000Y-74938000D02*
X136680000Y-76160000D01*
X138520000Y-77000000D02*
G75*
G03*
X134280000Y-77000000I-2120000J0D01*
G01*
X134280000Y-77000000D02*
G75*
G03*
X138520000Y-77000000I2120000J0D01*
G01*
X117160000Y-85320000D02*
X115944000Y-85320000D01*
X119351000Y-86601000D02*
X118840000Y-86601000D01*
X119516000Y-86441000D02*
X118840000Y-86441000D01*
X117160000Y-86761000D02*
X116858000Y-86761000D01*
X119396000Y-86561000D02*
X118840000Y-86561000D01*
X119478000Y-86481000D02*
X118840000Y-86481000D01*
X117160000Y-86441000D02*
X116484000Y-86441000D01*
X117160000Y-85280000D02*
X115938000Y-85280000D01*
X117160000Y-85921000D02*
X116130000Y-85921000D01*
X117160000Y-85600000D02*
X116006000Y-85600000D01*
X120034000Y-85440000D02*
X118840000Y-85440000D01*
X118537000Y-87041000D02*
X117463000Y-87041000D01*
X118370000Y-87081000D02*
X117630000Y-87081000D01*
X120079000Y-85080000D02*
X115921000Y-85080000D01*
X120071000Y-85200000D02*
X118840000Y-85200000D01*
X119940000Y-85761000D02*
X118840000Y-85761000D01*
X118940000Y-86881000D02*
X117060000Y-86881000D01*
X119438000Y-86521000D02*
X118840000Y-86521000D01*
X119680000Y-86241000D02*
X118840000Y-86241000D01*
X119968000Y-85680000D02*
X118840000Y-85680000D01*
X117160000Y-85761000D02*
X116060000Y-85761000D01*
X119954000Y-85721000D02*
X118840000Y-85721000D01*
X120077000Y-85120000D02*
X115923000Y-85120000D01*
X120080000Y-85040000D02*
X115920000Y-85040000D01*
X120067000Y-85240000D02*
X118840000Y-85240000D01*
X119851000Y-85961000D02*
X118840000Y-85961000D01*
X117160000Y-86481000D02*
X116522000Y-86481000D01*
X119870000Y-85921000D02*
X118840000Y-85921000D01*
X117160000Y-85480000D02*
X115975000Y-85480000D01*
X117160000Y-86081000D02*
X116215000Y-86081000D01*
X119254000Y-86681000D02*
X118840000Y-86681000D01*
X119735000Y-86161000D02*
X118840000Y-86161000D01*
X117160000Y-86201000D02*
X116292000Y-86201000D01*
X117160000Y-85360000D02*
X115950000Y-85360000D01*
X117160000Y-85560000D02*
X115995000Y-85560000D01*
X117160000Y-86041000D02*
X116192000Y-86041000D01*
X117160000Y-85520000D02*
X115984000Y-85520000D01*
X117160000Y-85640000D02*
X116018000Y-85640000D01*
X117160000Y-86521000D02*
X116562000Y-86521000D01*
X117160000Y-85721000D02*
X116046000Y-85721000D01*
X117160000Y-85841000D02*
X116093000Y-85841000D01*
X117160000Y-86721000D02*
X116800000Y-86721000D01*
X119304000Y-86641000D02*
X118840000Y-86641000D01*
X119552000Y-86401000D02*
X118840000Y-86401000D01*
X117160000Y-86361000D02*
X116413000Y-86361000D01*
X117160000Y-86681000D02*
X116746000Y-86681000D01*
X119013000Y-86841000D02*
X116987000Y-86841000D01*
X119619000Y-86321000D02*
X118840000Y-86321000D01*
X117160000Y-86121000D02*
X116240000Y-86121000D01*
X119760000Y-86121000D02*
X118840000Y-86121000D01*
X119200000Y-86721000D02*
X118840000Y-86721000D01*
X119830000Y-86001000D02*
X118840000Y-86001000D01*
X119889000Y-85881000D02*
X118840000Y-85881000D01*
X117160000Y-86161000D02*
X116265000Y-86161000D01*
X119924000Y-85801000D02*
X118840000Y-85801000D01*
X117160000Y-86641000D02*
X116696000Y-86641000D01*
X117160000Y-85440000D02*
X115966000Y-85440000D01*
X117160000Y-86241000D02*
X116320000Y-86241000D01*
X119195000Y-82730199D02*
X119195000Y-83130199D01*
X120056000Y-85320000D02*
X118840000Y-85320000D01*
X118768000Y-86961000D02*
X117232000Y-86961000D01*
X119982000Y-85640000D02*
X118840000Y-85640000D01*
X119395000Y-82930199D02*
X118995000Y-82930199D01*
X117160000Y-85961000D02*
X116149000Y-85961000D01*
X119808000Y-86041000D02*
X118840000Y-86041000D01*
X120042000Y-85400000D02*
X118840000Y-85400000D01*
X117160000Y-86561000D02*
X116604000Y-86561000D01*
X119785000Y-86081000D02*
X118840000Y-86081000D01*
X119587000Y-86361000D02*
X118840000Y-86361000D01*
X117160000Y-85801000D02*
X116076000Y-85801000D01*
X117160000Y-86321000D02*
X116381000Y-86321000D01*
X119994000Y-85600000D02*
X118840000Y-85600000D01*
X117160000Y-85400000D02*
X115958000Y-85400000D01*
X119907000Y-85841000D02*
X118840000Y-85841000D01*
X120074000Y-85160000D02*
X115926000Y-85160000D01*
X117160000Y-85680000D02*
X116032000Y-85680000D01*
X117160000Y-86001000D02*
X116170000Y-86001000D01*
X117160000Y-86281000D02*
X116350000Y-86281000D01*
X117160000Y-86801000D02*
X116920000Y-86801000D01*
X119080000Y-86801000D02*
X118840000Y-86801000D01*
X117160000Y-85881000D02*
X116111000Y-85881000D01*
X120080000Y-85000000D02*
X115920000Y-85000000D01*
X119708000Y-86201000D02*
X118840000Y-86201000D01*
X118664000Y-87001000D02*
X117336000Y-87001000D01*
X117160000Y-85240000D02*
X115933000Y-85240000D01*
X117160000Y-86401000D02*
X116448000Y-86401000D01*
X118859000Y-86921000D02*
X117141000Y-86921000D01*
X117160000Y-85200000D02*
X115929000Y-85200000D01*
X120016000Y-85520000D02*
X118840000Y-85520000D01*
X117160000Y-86601000D02*
X116649000Y-86601000D01*
X120050000Y-85360000D02*
X118840000Y-85360000D01*
X119142000Y-86761000D02*
X118840000Y-86761000D01*
X120025000Y-85480000D02*
X118840000Y-85480000D01*
X119650000Y-86281000D02*
X118840000Y-86281000D01*
X120005000Y-85560000D02*
X118840000Y-85560000D01*
X120062000Y-85280000D02*
X118840000Y-85280000D01*
X120120000Y-85000000D02*
G75*
G03*
X115880000Y-85000000I-2120000J0D01*
G01*
X115880000Y-85000000D02*
G75*
G03*
X120120000Y-85000000I2120000J0D01*
G01*
X117160000Y-77320000D02*
X115944000Y-77320000D01*
X119351000Y-78601000D02*
X118840000Y-78601000D01*
X119516000Y-78441000D02*
X118840000Y-78441000D01*
X117160000Y-78761000D02*
X116858000Y-78761000D01*
X119396000Y-78561000D02*
X118840000Y-78561000D01*
X119478000Y-78481000D02*
X118840000Y-78481000D01*
X117160000Y-78441000D02*
X116484000Y-78441000D01*
X117160000Y-77280000D02*
X115938000Y-77280000D01*
X117160000Y-77921000D02*
X116130000Y-77921000D01*
X117160000Y-77600000D02*
X116006000Y-77600000D01*
X120034000Y-77440000D02*
X118840000Y-77440000D01*
X118537000Y-79041000D02*
X117463000Y-79041000D01*
X118370000Y-79081000D02*
X117630000Y-79081000D01*
X120079000Y-77080000D02*
X115921000Y-77080000D01*
X120071000Y-77200000D02*
X118840000Y-77200000D01*
X119940000Y-77761000D02*
X118840000Y-77761000D01*
X118940000Y-78881000D02*
X117060000Y-78881000D01*
X119438000Y-78521000D02*
X118840000Y-78521000D01*
X119680000Y-78241000D02*
X118840000Y-78241000D01*
X119968000Y-77680000D02*
X118840000Y-77680000D01*
X117160000Y-77761000D02*
X116060000Y-77761000D01*
X119954000Y-77721000D02*
X118840000Y-77721000D01*
X120077000Y-77120000D02*
X115923000Y-77120000D01*
X120080000Y-77040000D02*
X115920000Y-77040000D01*
X120067000Y-77240000D02*
X118840000Y-77240000D01*
X119851000Y-77961000D02*
X118840000Y-77961000D01*
X117160000Y-78481000D02*
X116522000Y-78481000D01*
X119870000Y-77921000D02*
X118840000Y-77921000D01*
X117160000Y-77480000D02*
X115975000Y-77480000D01*
X117160000Y-78081000D02*
X116215000Y-78081000D01*
X119254000Y-78681000D02*
X118840000Y-78681000D01*
X119735000Y-78161000D02*
X118840000Y-78161000D01*
X117160000Y-78201000D02*
X116292000Y-78201000D01*
X117160000Y-77360000D02*
X115950000Y-77360000D01*
X117160000Y-77560000D02*
X115995000Y-77560000D01*
X117160000Y-78041000D02*
X116192000Y-78041000D01*
X117160000Y-77520000D02*
X115984000Y-77520000D01*
X117160000Y-77640000D02*
X116018000Y-77640000D01*
X117160000Y-78521000D02*
X116562000Y-78521000D01*
X117160000Y-77721000D02*
X116046000Y-77721000D01*
X117160000Y-77841000D02*
X116093000Y-77841000D01*
X117160000Y-78721000D02*
X116800000Y-78721000D01*
X119304000Y-78641000D02*
X118840000Y-78641000D01*
X119552000Y-78401000D02*
X118840000Y-78401000D01*
X117160000Y-78361000D02*
X116413000Y-78361000D01*
X117160000Y-78681000D02*
X116746000Y-78681000D01*
X119013000Y-78841000D02*
X116987000Y-78841000D01*
X119619000Y-78321000D02*
X118840000Y-78321000D01*
X117160000Y-78121000D02*
X116240000Y-78121000D01*
X119760000Y-78121000D02*
X118840000Y-78121000D01*
X119200000Y-78721000D02*
X118840000Y-78721000D01*
X119830000Y-78001000D02*
X118840000Y-78001000D01*
X119889000Y-77881000D02*
X118840000Y-77881000D01*
X117160000Y-78161000D02*
X116265000Y-78161000D01*
X119924000Y-77801000D02*
X118840000Y-77801000D01*
X117160000Y-78641000D02*
X116696000Y-78641000D01*
X117160000Y-77440000D02*
X115966000Y-77440000D01*
X117160000Y-78241000D02*
X116320000Y-78241000D01*
X119195000Y-74730199D02*
X119195000Y-75130199D01*
X120056000Y-77320000D02*
X118840000Y-77320000D01*
X118768000Y-78961000D02*
X117232000Y-78961000D01*
X119982000Y-77640000D02*
X118840000Y-77640000D01*
X119395000Y-74930199D02*
X118995000Y-74930199D01*
X117160000Y-77961000D02*
X116149000Y-77961000D01*
X119808000Y-78041000D02*
X118840000Y-78041000D01*
X120042000Y-77400000D02*
X118840000Y-77400000D01*
X117160000Y-78561000D02*
X116604000Y-78561000D01*
X119785000Y-78081000D02*
X118840000Y-78081000D01*
X119587000Y-78361000D02*
X118840000Y-78361000D01*
X117160000Y-77801000D02*
X116076000Y-77801000D01*
X117160000Y-78321000D02*
X116381000Y-78321000D01*
X119994000Y-77600000D02*
X118840000Y-77600000D01*
X117160000Y-77400000D02*
X115958000Y-77400000D01*
X119907000Y-77841000D02*
X118840000Y-77841000D01*
X120074000Y-77160000D02*
X115926000Y-77160000D01*
X117160000Y-77680000D02*
X116032000Y-77680000D01*
X117160000Y-78001000D02*
X116170000Y-78001000D01*
X117160000Y-78281000D02*
X116350000Y-78281000D01*
X117160000Y-78801000D02*
X116920000Y-78801000D01*
X119080000Y-78801000D02*
X118840000Y-78801000D01*
X117160000Y-77881000D02*
X116111000Y-77881000D01*
X120080000Y-77000000D02*
X115920000Y-77000000D01*
X119708000Y-78201000D02*
X118840000Y-78201000D01*
X118664000Y-79001000D02*
X117336000Y-79001000D01*
X117160000Y-77240000D02*
X115933000Y-77240000D01*
X117160000Y-78401000D02*
X116448000Y-78401000D01*
X118859000Y-78921000D02*
X117141000Y-78921000D01*
X117160000Y-77200000D02*
X115929000Y-77200000D01*
X120016000Y-77520000D02*
X118840000Y-77520000D01*
X117160000Y-78601000D02*
X116649000Y-78601000D01*
X120050000Y-77360000D02*
X118840000Y-77360000D01*
X119142000Y-78761000D02*
X118840000Y-78761000D01*
X120025000Y-77480000D02*
X118840000Y-77480000D01*
X119650000Y-78281000D02*
X118840000Y-78281000D01*
X120005000Y-77560000D02*
X118840000Y-77560000D01*
X120062000Y-77280000D02*
X118840000Y-77280000D01*
X120120000Y-77000000D02*
G75*
G03*
X115880000Y-77000000I-2120000J0D01*
G01*
X115880000Y-77000000D02*
G75*
G03*
X120120000Y-77000000I2120000J0D01*
G01*
D14*
X137000000Y-49650000D02*
G75*
G03*
X137000000Y-49750000I0J-50000D01*
G01*
X137000000Y-49750000D02*
G75*
G03*
X137000000Y-49650000I0J50000D01*
G01*
X137000000Y-49650000D02*
X137000000Y-49650000D01*
X137000000Y-49750000D02*
X137000000Y-49750000D01*
X139100000Y-50350000D02*
X126900000Y-50350000D01*
X139100000Y-57150000D02*
X126700000Y-57150000D01*
D13*
X182000000Y-81880000D02*
X182000000Y-82650000D01*
X183370000Y-82650000D02*
X180630000Y-82650000D01*
X180630000Y-82650000D02*
X180630000Y-89190000D01*
X183370000Y-89190000D02*
X183370000Y-82650000D01*
X180630000Y-89190000D02*
X183370000Y-89190000D01*
X182000000Y-89960000D02*
X182000000Y-89190000D01*
X194000000Y-89960000D02*
X194000000Y-89190000D01*
X192630000Y-89190000D02*
X195370000Y-89190000D01*
X195370000Y-89190000D02*
X195370000Y-82650000D01*
X192630000Y-82650000D02*
X192630000Y-89190000D01*
X195370000Y-82650000D02*
X192630000Y-82650000D01*
X194000000Y-81880000D02*
X194000000Y-82650000D01*
X193548000Y-55626000D02*
X194818000Y-55626000D01*
X193548000Y-56896000D02*
X193548000Y-55626000D01*
X195860929Y-59056000D02*
X196258000Y-59056000D01*
X195860929Y-59816000D02*
X196258000Y-59816000D01*
X195860929Y-61596000D02*
X196258000Y-61596000D01*
X195860929Y-62356000D02*
X196258000Y-62356000D01*
X195860929Y-64136000D02*
X196258000Y-64136000D01*
X195860929Y-64896000D02*
X196258000Y-64896000D01*
X195860929Y-66676000D02*
X196258000Y-66676000D01*
X195860929Y-67436000D02*
X196258000Y-67436000D01*
X195860929Y-69216000D02*
X196258000Y-69216000D01*
X195860929Y-69976000D02*
X196258000Y-69976000D01*
X195928000Y-56516000D02*
X196258000Y-56516000D01*
X195928000Y-57276000D02*
X196258000Y-57276000D01*
X196258000Y-55566000D02*
X196258000Y-70926000D01*
X196258000Y-58166000D02*
X198918000Y-58166000D01*
X196258000Y-60706000D02*
X198918000Y-60706000D01*
X196258000Y-63246000D02*
X198918000Y-63246000D01*
X196258000Y-65786000D02*
X198918000Y-65786000D01*
X196258000Y-68326000D02*
X198918000Y-68326000D01*
X196258000Y-70926000D02*
X198918000Y-70926000D01*
X198918000Y-55566000D02*
X196258000Y-55566000D01*
X198918000Y-56516000D02*
X204918000Y-56516000D01*
X198918000Y-56576000D02*
X204918000Y-56576000D01*
X198918000Y-56696000D02*
X204918000Y-56696000D01*
X198918000Y-56816000D02*
X204918000Y-56816000D01*
X198918000Y-56936000D02*
X204918000Y-56936000D01*
X198918000Y-57056000D02*
X204918000Y-57056000D01*
X198918000Y-57176000D02*
X204918000Y-57176000D01*
X198918000Y-59056000D02*
X204918000Y-59056000D01*
X198918000Y-61596000D02*
X204918000Y-61596000D01*
X198918000Y-64136000D02*
X204918000Y-64136000D01*
X198918000Y-66676000D02*
X204918000Y-66676000D01*
X198918000Y-69216000D02*
X204918000Y-69216000D01*
X198918000Y-70926000D02*
X198918000Y-55566000D01*
X204918000Y-56516000D02*
X204918000Y-57276000D01*
X204918000Y-57276000D02*
X198918000Y-57276000D01*
X204918000Y-59056000D02*
X204918000Y-59816000D01*
X204918000Y-59816000D02*
X198918000Y-59816000D01*
X204918000Y-61596000D02*
X204918000Y-62356000D01*
X204918000Y-62356000D02*
X198918000Y-62356000D01*
X204918000Y-64136000D02*
X204918000Y-64896000D01*
X204918000Y-64896000D02*
X198918000Y-64896000D01*
X204918000Y-66676000D02*
X204918000Y-67436000D01*
X204918000Y-67436000D02*
X198918000Y-67436000D01*
X204918000Y-69216000D02*
X204918000Y-69976000D01*
X204918000Y-69976000D02*
X198918000Y-69976000D01*
X160370000Y-69370000D02*
X160370000Y-66630000D01*
X160370000Y-69370000D02*
X155130000Y-69370000D01*
X160370000Y-66630000D02*
X155130000Y-66630000D01*
X155130000Y-69370000D02*
X155130000Y-66630000D01*
X145525000Y-69554775D02*
X145525000Y-69054775D01*
X145275000Y-69304775D02*
X145775000Y-69304775D01*
X144420000Y-66750000D02*
X149580000Y-66750000D01*
X144420000Y-66710000D02*
X149580000Y-66710000D01*
X144421000Y-66670000D02*
X149579000Y-66670000D01*
X144422000Y-66630000D02*
X149578000Y-66630000D01*
X144424000Y-66590000D02*
X149576000Y-66590000D01*
X144427000Y-66550000D02*
X149573000Y-66550000D01*
X144431000Y-66510000D02*
X145960000Y-66510000D01*
X148040000Y-66510000D02*
X149569000Y-66510000D01*
X144435000Y-66470000D02*
X145960000Y-66470000D01*
X148040000Y-66470000D02*
X149565000Y-66470000D01*
X144439000Y-66430000D02*
X145960000Y-66430000D01*
X148040000Y-66430000D02*
X149561000Y-66430000D01*
X144444000Y-66390000D02*
X145960000Y-66390000D01*
X148040000Y-66390000D02*
X149556000Y-66390000D01*
X144450000Y-66350000D02*
X145960000Y-66350000D01*
X148040000Y-66350000D02*
X149550000Y-66350000D01*
X144457000Y-66310000D02*
X145960000Y-66310000D01*
X148040000Y-66310000D02*
X149543000Y-66310000D01*
X144464000Y-66270000D02*
X145960000Y-66270000D01*
X148040000Y-66270000D02*
X149536000Y-66270000D01*
X144472000Y-66230000D02*
X145960000Y-66230000D01*
X148040000Y-66230000D02*
X149528000Y-66230000D01*
X144480000Y-66190000D02*
X145960000Y-66190000D01*
X148040000Y-66190000D02*
X149520000Y-66190000D01*
X144489000Y-66150000D02*
X145960000Y-66150000D01*
X148040000Y-66150000D02*
X149511000Y-66150000D01*
X144499000Y-66110000D02*
X145960000Y-66110000D01*
X148040000Y-66110000D02*
X149501000Y-66110000D01*
X144509000Y-66070000D02*
X145960000Y-66070000D01*
X148040000Y-66070000D02*
X149491000Y-66070000D01*
X144520000Y-66029000D02*
X145960000Y-66029000D01*
X148040000Y-66029000D02*
X149480000Y-66029000D01*
X144532000Y-65989000D02*
X145960000Y-65989000D01*
X148040000Y-65989000D02*
X149468000Y-65989000D01*
X144545000Y-65949000D02*
X145960000Y-65949000D01*
X148040000Y-65949000D02*
X149455000Y-65949000D01*
X144558000Y-65909000D02*
X145960000Y-65909000D01*
X148040000Y-65909000D02*
X149442000Y-65909000D01*
X144572000Y-65869000D02*
X145960000Y-65869000D01*
X148040000Y-65869000D02*
X149428000Y-65869000D01*
X144586000Y-65829000D02*
X145960000Y-65829000D01*
X148040000Y-65829000D02*
X149414000Y-65829000D01*
X144602000Y-65789000D02*
X145960000Y-65789000D01*
X148040000Y-65789000D02*
X149398000Y-65789000D01*
X144618000Y-65749000D02*
X145960000Y-65749000D01*
X148040000Y-65749000D02*
X149382000Y-65749000D01*
X144635000Y-65709000D02*
X145960000Y-65709000D01*
X148040000Y-65709000D02*
X149365000Y-65709000D01*
X144652000Y-65669000D02*
X145960000Y-65669000D01*
X148040000Y-65669000D02*
X149348000Y-65669000D01*
X144671000Y-65629000D02*
X145960000Y-65629000D01*
X148040000Y-65629000D02*
X149329000Y-65629000D01*
X144690000Y-65589000D02*
X145960000Y-65589000D01*
X148040000Y-65589000D02*
X149310000Y-65589000D01*
X144710000Y-65549000D02*
X145960000Y-65549000D01*
X148040000Y-65549000D02*
X149290000Y-65549000D01*
X144732000Y-65509000D02*
X145960000Y-65509000D01*
X148040000Y-65509000D02*
X149268000Y-65509000D01*
X144753000Y-65469000D02*
X145960000Y-65469000D01*
X148040000Y-65469000D02*
X149247000Y-65469000D01*
X144776000Y-65429000D02*
X145960000Y-65429000D01*
X148040000Y-65429000D02*
X149224000Y-65429000D01*
X144800000Y-65389000D02*
X145960000Y-65389000D01*
X148040000Y-65389000D02*
X149200000Y-65389000D01*
X144825000Y-65349000D02*
X145960000Y-65349000D01*
X148040000Y-65349000D02*
X149175000Y-65349000D01*
X144851000Y-65309000D02*
X145960000Y-65309000D01*
X148040000Y-65309000D02*
X149149000Y-65309000D01*
X144878000Y-65269000D02*
X145960000Y-65269000D01*
X148040000Y-65269000D02*
X149122000Y-65269000D01*
X144905000Y-65229000D02*
X145960000Y-65229000D01*
X148040000Y-65229000D02*
X149095000Y-65229000D01*
X144935000Y-65189000D02*
X145960000Y-65189000D01*
X148040000Y-65189000D02*
X149065000Y-65189000D01*
X144965000Y-65149000D02*
X145960000Y-65149000D01*
X148040000Y-65149000D02*
X149035000Y-65149000D01*
X144996000Y-65109000D02*
X145960000Y-65109000D01*
X148040000Y-65109000D02*
X149004000Y-65109000D01*
X145029000Y-65069000D02*
X145960000Y-65069000D01*
X148040000Y-65069000D02*
X148971000Y-65069000D01*
X145063000Y-65029000D02*
X145960000Y-65029000D01*
X148040000Y-65029000D02*
X148937000Y-65029000D01*
X145099000Y-64989000D02*
X145960000Y-64989000D01*
X148040000Y-64989000D02*
X148901000Y-64989000D01*
X145136000Y-64949000D02*
X145960000Y-64949000D01*
X148040000Y-64949000D02*
X148864000Y-64949000D01*
X145174000Y-64909000D02*
X145960000Y-64909000D01*
X148040000Y-64909000D02*
X148826000Y-64909000D01*
X145215000Y-64869000D02*
X145960000Y-64869000D01*
X148040000Y-64869000D02*
X148785000Y-64869000D01*
X145257000Y-64829000D02*
X145960000Y-64829000D01*
X148040000Y-64829000D02*
X148743000Y-64829000D01*
X145301000Y-64789000D02*
X145960000Y-64789000D01*
X148040000Y-64789000D02*
X148699000Y-64789000D01*
X145347000Y-64749000D02*
X145960000Y-64749000D01*
X148040000Y-64749000D02*
X148653000Y-64749000D01*
X145395000Y-64709000D02*
X145960000Y-64709000D01*
X148040000Y-64709000D02*
X148605000Y-64709000D01*
X145446000Y-64669000D02*
X145960000Y-64669000D01*
X148040000Y-64669000D02*
X148554000Y-64669000D01*
X145500000Y-64629000D02*
X145960000Y-64629000D01*
X148040000Y-64629000D02*
X148500000Y-64629000D01*
X145557000Y-64589000D02*
X145960000Y-64589000D01*
X148040000Y-64589000D02*
X148443000Y-64589000D01*
X145617000Y-64549000D02*
X145960000Y-64549000D01*
X148040000Y-64549000D02*
X148383000Y-64549000D01*
X145681000Y-64509000D02*
X145960000Y-64509000D01*
X148040000Y-64509000D02*
X148319000Y-64509000D01*
X145749000Y-64469000D02*
X145960000Y-64469000D01*
X148040000Y-64469000D02*
X148251000Y-64469000D01*
X145822000Y-64429000D02*
X148178000Y-64429000D01*
X145902000Y-64389000D02*
X148098000Y-64389000D01*
X145989000Y-64349000D02*
X148011000Y-64349000D01*
X146085000Y-64309000D02*
X147915000Y-64309000D01*
X146195000Y-64269000D02*
X147805000Y-64269000D01*
X146323000Y-64229000D02*
X147677000Y-64229000D01*
X146482000Y-64189000D02*
X147518000Y-64189000D01*
X146716000Y-64149000D02*
X147284000Y-64149000D01*
X149620000Y-66750000D02*
G75*
G03*
X144380000Y-66750000I-2620000J0D01*
G01*
X144380000Y-66750000D02*
G75*
G03*
X149620000Y-66750000I2620000J0D01*
G01*
X185000000Y-89960000D02*
X185000000Y-89190000D01*
X183630000Y-89190000D02*
X186370000Y-89190000D01*
X186370000Y-89190000D02*
X186370000Y-82650000D01*
X183630000Y-82650000D02*
X183630000Y-89190000D01*
X186370000Y-82650000D02*
X183630000Y-82650000D01*
X185000000Y-81880000D02*
X185000000Y-82650000D01*
X188000000Y-89960000D02*
X188000000Y-89190000D01*
X186630000Y-89190000D02*
X189370000Y-89190000D01*
X189370000Y-89190000D02*
X189370000Y-82650000D01*
X186630000Y-82650000D02*
X186630000Y-89190000D01*
X189370000Y-82650000D02*
X186630000Y-82650000D01*
X188000000Y-81880000D02*
X188000000Y-82650000D01*
X178870000Y-63330000D02*
X178870000Y-53050000D01*
X178870000Y-63330000D02*
X176270000Y-63330000D01*
X178870000Y-53050000D02*
X173670000Y-53050000D01*
X176270000Y-63330000D02*
X176270000Y-60730000D01*
X176270000Y-60730000D02*
X173670000Y-60730000D01*
X175000000Y-63330000D02*
X173670000Y-63330000D01*
X173670000Y-63330000D02*
X173670000Y-62000000D01*
X173670000Y-60730000D02*
X173670000Y-53050000D01*
X110043181Y-57684027D02*
X111528105Y-59168951D01*
X113366583Y-61007429D02*
X113727207Y-61368053D01*
X113727207Y-61368053D02*
X114094903Y-61000358D01*
X111733166Y-58638621D02*
X111895801Y-58801256D01*
X111733166Y-58638621D02*
X112115004Y-58256783D01*
X113734278Y-60639733D02*
X114094903Y-61000358D01*
X112892821Y-57478966D02*
X115296984Y-55074803D01*
X116074802Y-54296985D02*
X116456639Y-53915148D01*
X116456639Y-53915148D02*
X116619274Y-54077782D01*
X118457752Y-55916260D02*
X118818376Y-56276884D01*
X118818376Y-56276884D02*
X119186072Y-55909189D01*
X115502045Y-52225162D02*
X116986970Y-53710087D01*
X118825447Y-55548564D02*
X119186072Y-55909189D01*
X152670000Y-70610000D02*
X152670000Y-91170000D01*
X152670000Y-91170000D02*
X162950000Y-91170000D01*
X155160000Y-70670000D02*
X155160000Y-91110000D01*
X155160000Y-91110000D02*
X160460000Y-91110000D01*
X156810000Y-70670000D02*
X155160000Y-70670000D01*
X160460000Y-70670000D02*
X158810000Y-70670000D01*
X160460000Y-91110000D02*
X160460000Y-70670000D01*
X162950000Y-70610000D02*
X152670000Y-70610000D01*
X162950000Y-91170000D02*
X162950000Y-70610000D01*
X156810000Y-70670000D02*
G75*
G03*
X158810000Y-70670000I1000000J0D01*
G01*
X169040000Y-54000000D02*
X168270000Y-54000000D01*
X168270000Y-55370000D02*
X168270000Y-52630000D01*
X168270000Y-52630000D02*
X161730000Y-52630000D01*
X161730000Y-55370000D02*
X168270000Y-55370000D01*
X161730000Y-52630000D02*
X161730000Y-55370000D01*
X160960000Y-54000000D02*
X161730000Y-54000000D01*
X169040000Y-57000000D02*
X168270000Y-57000000D01*
X168270000Y-58370000D02*
X168270000Y-55630000D01*
X168270000Y-55630000D02*
X161730000Y-55630000D01*
X161730000Y-58370000D02*
X168270000Y-58370000D01*
X161730000Y-55630000D02*
X161730000Y-58370000D01*
X160960000Y-57000000D02*
X161730000Y-57000000D01*
X148475000Y-57445225D02*
X148475000Y-57945225D01*
X148725000Y-57695225D02*
X148225000Y-57695225D01*
X149580000Y-60250000D02*
X144420000Y-60250000D01*
X149580000Y-60290000D02*
X144420000Y-60290000D01*
X149579000Y-60330000D02*
X144421000Y-60330000D01*
X149578000Y-60370000D02*
X144422000Y-60370000D01*
X149576000Y-60410000D02*
X144424000Y-60410000D01*
X149573000Y-60450000D02*
X144427000Y-60450000D01*
X149569000Y-60490000D02*
X148040000Y-60490000D01*
X145960000Y-60490000D02*
X144431000Y-60490000D01*
X149565000Y-60530000D02*
X148040000Y-60530000D01*
X145960000Y-60530000D02*
X144435000Y-60530000D01*
X149561000Y-60570000D02*
X148040000Y-60570000D01*
X145960000Y-60570000D02*
X144439000Y-60570000D01*
X149556000Y-60610000D02*
X148040000Y-60610000D01*
X145960000Y-60610000D02*
X144444000Y-60610000D01*
X149550000Y-60650000D02*
X148040000Y-60650000D01*
X145960000Y-60650000D02*
X144450000Y-60650000D01*
X149543000Y-60690000D02*
X148040000Y-60690000D01*
X145960000Y-60690000D02*
X144457000Y-60690000D01*
X149536000Y-60730000D02*
X148040000Y-60730000D01*
X145960000Y-60730000D02*
X144464000Y-60730000D01*
X149528000Y-60770000D02*
X148040000Y-60770000D01*
X145960000Y-60770000D02*
X144472000Y-60770000D01*
X149520000Y-60810000D02*
X148040000Y-60810000D01*
X145960000Y-60810000D02*
X144480000Y-60810000D01*
X149511000Y-60850000D02*
X148040000Y-60850000D01*
X145960000Y-60850000D02*
X144489000Y-60850000D01*
X149501000Y-60890000D02*
X148040000Y-60890000D01*
X145960000Y-60890000D02*
X144499000Y-60890000D01*
X149491000Y-60930000D02*
X148040000Y-60930000D01*
X145960000Y-60930000D02*
X144509000Y-60930000D01*
X149480000Y-60971000D02*
X148040000Y-60971000D01*
X145960000Y-60971000D02*
X144520000Y-60971000D01*
X149468000Y-61011000D02*
X148040000Y-61011000D01*
X145960000Y-61011000D02*
X144532000Y-61011000D01*
X149455000Y-61051000D02*
X148040000Y-61051000D01*
X145960000Y-61051000D02*
X144545000Y-61051000D01*
X149442000Y-61091000D02*
X148040000Y-61091000D01*
X145960000Y-61091000D02*
X144558000Y-61091000D01*
X149428000Y-61131000D02*
X148040000Y-61131000D01*
X145960000Y-61131000D02*
X144572000Y-61131000D01*
X149414000Y-61171000D02*
X148040000Y-61171000D01*
X145960000Y-61171000D02*
X144586000Y-61171000D01*
X149398000Y-61211000D02*
X148040000Y-61211000D01*
X145960000Y-61211000D02*
X144602000Y-61211000D01*
X149382000Y-61251000D02*
X148040000Y-61251000D01*
X145960000Y-61251000D02*
X144618000Y-61251000D01*
X149365000Y-61291000D02*
X148040000Y-61291000D01*
X145960000Y-61291000D02*
X144635000Y-61291000D01*
X149348000Y-61331000D02*
X148040000Y-61331000D01*
X145960000Y-61331000D02*
X144652000Y-61331000D01*
X149329000Y-61371000D02*
X148040000Y-61371000D01*
X145960000Y-61371000D02*
X144671000Y-61371000D01*
X149310000Y-61411000D02*
X148040000Y-61411000D01*
X145960000Y-61411000D02*
X144690000Y-61411000D01*
X149290000Y-61451000D02*
X148040000Y-61451000D01*
X145960000Y-61451000D02*
X144710000Y-61451000D01*
X149268000Y-61491000D02*
X148040000Y-61491000D01*
X145960000Y-61491000D02*
X144732000Y-61491000D01*
X149247000Y-61531000D02*
X148040000Y-61531000D01*
X145960000Y-61531000D02*
X144753000Y-61531000D01*
X149224000Y-61571000D02*
X148040000Y-61571000D01*
X145960000Y-61571000D02*
X144776000Y-61571000D01*
X149200000Y-61611000D02*
X148040000Y-61611000D01*
X145960000Y-61611000D02*
X144800000Y-61611000D01*
X149175000Y-61651000D02*
X148040000Y-61651000D01*
X145960000Y-61651000D02*
X144825000Y-61651000D01*
X149149000Y-61691000D02*
X148040000Y-61691000D01*
X145960000Y-61691000D02*
X144851000Y-61691000D01*
X149122000Y-61731000D02*
X148040000Y-61731000D01*
X145960000Y-61731000D02*
X144878000Y-61731000D01*
X149095000Y-61771000D02*
X148040000Y-61771000D01*
X145960000Y-61771000D02*
X144905000Y-61771000D01*
X149065000Y-61811000D02*
X148040000Y-61811000D01*
X145960000Y-61811000D02*
X144935000Y-61811000D01*
X149035000Y-61851000D02*
X148040000Y-61851000D01*
X145960000Y-61851000D02*
X144965000Y-61851000D01*
X149004000Y-61891000D02*
X148040000Y-61891000D01*
X145960000Y-61891000D02*
X144996000Y-61891000D01*
X148971000Y-61931000D02*
X148040000Y-61931000D01*
X145960000Y-61931000D02*
X145029000Y-61931000D01*
X148937000Y-61971000D02*
X148040000Y-61971000D01*
X145960000Y-61971000D02*
X145063000Y-61971000D01*
X148901000Y-62011000D02*
X148040000Y-62011000D01*
X145960000Y-62011000D02*
X145099000Y-62011000D01*
X148864000Y-62051000D02*
X148040000Y-62051000D01*
X145960000Y-62051000D02*
X145136000Y-62051000D01*
X148826000Y-62091000D02*
X148040000Y-62091000D01*
X145960000Y-62091000D02*
X145174000Y-62091000D01*
X148785000Y-62131000D02*
X148040000Y-62131000D01*
X145960000Y-62131000D02*
X145215000Y-62131000D01*
X148743000Y-62171000D02*
X148040000Y-62171000D01*
X145960000Y-62171000D02*
X145257000Y-62171000D01*
X148699000Y-62211000D02*
X148040000Y-62211000D01*
X145960000Y-62211000D02*
X145301000Y-62211000D01*
X148653000Y-62251000D02*
X148040000Y-62251000D01*
X145960000Y-62251000D02*
X145347000Y-62251000D01*
X148605000Y-62291000D02*
X148040000Y-62291000D01*
X145960000Y-62291000D02*
X145395000Y-62291000D01*
X148554000Y-62331000D02*
X148040000Y-62331000D01*
X145960000Y-62331000D02*
X145446000Y-62331000D01*
X148500000Y-62371000D02*
X148040000Y-62371000D01*
X145960000Y-62371000D02*
X145500000Y-62371000D01*
X148443000Y-62411000D02*
X148040000Y-62411000D01*
X145960000Y-62411000D02*
X145557000Y-62411000D01*
X148383000Y-62451000D02*
X148040000Y-62451000D01*
X145960000Y-62451000D02*
X145617000Y-62451000D01*
X148319000Y-62491000D02*
X148040000Y-62491000D01*
X145960000Y-62491000D02*
X145681000Y-62491000D01*
X148251000Y-62531000D02*
X148040000Y-62531000D01*
X145960000Y-62531000D02*
X145749000Y-62531000D01*
X148178000Y-62571000D02*
X145822000Y-62571000D01*
X148098000Y-62611000D02*
X145902000Y-62611000D01*
X148011000Y-62651000D02*
X145989000Y-62651000D01*
X147915000Y-62691000D02*
X146085000Y-62691000D01*
X147805000Y-62731000D02*
X146195000Y-62731000D01*
X147677000Y-62771000D02*
X146323000Y-62771000D01*
X147518000Y-62811000D02*
X146482000Y-62811000D01*
X147284000Y-62851000D02*
X146716000Y-62851000D01*
X149620000Y-60250000D02*
G75*
G03*
X144380000Y-60250000I-2620000J0D01*
G01*
X144380000Y-60250000D02*
G75*
G03*
X149620000Y-60250000I2620000J0D01*
G01*
X112290331Y-64942000D02*
X112290331Y-95912000D01*
X99950331Y-64942000D02*
X112290331Y-64942000D01*
X113184669Y-85717000D02*
X113184669Y-86217000D01*
X112751656Y-85967000D02*
X113184669Y-85717000D01*
X113184669Y-86217000D02*
X112751656Y-85967000D01*
X112290331Y-95912000D02*
X99950331Y-95912000D01*
X182000000Y-54040000D02*
X182000000Y-54810000D01*
X183370000Y-54810000D02*
X180630000Y-54810000D01*
X180630000Y-54810000D02*
X180630000Y-61350000D01*
X183370000Y-61350000D02*
X183370000Y-54810000D01*
X180630000Y-61350000D02*
X183370000Y-61350000D01*
X182000000Y-62120000D02*
X182000000Y-61350000D01*
X129870000Y-73370000D02*
X129870000Y-70630000D01*
X129870000Y-73370000D02*
X124630000Y-73370000D01*
X129870000Y-70630000D02*
X124630000Y-70630000D01*
X124630000Y-73370000D02*
X124630000Y-70630000D01*
X133445225Y-82525000D02*
X133945225Y-82525000D01*
X133695225Y-82275000D02*
X133695225Y-82775000D01*
X136250000Y-81420000D02*
X136250000Y-86580000D01*
X136290000Y-81420000D02*
X136290000Y-86580000D01*
X136330000Y-81421000D02*
X136330000Y-86579000D01*
X136370000Y-81422000D02*
X136370000Y-86578000D01*
X136410000Y-81424000D02*
X136410000Y-86576000D01*
X136450000Y-81427000D02*
X136450000Y-86573000D01*
X136490000Y-81431000D02*
X136490000Y-82960000D01*
X136490000Y-85040000D02*
X136490000Y-86569000D01*
X136530000Y-81435000D02*
X136530000Y-82960000D01*
X136530000Y-85040000D02*
X136530000Y-86565000D01*
X136570000Y-81439000D02*
X136570000Y-82960000D01*
X136570000Y-85040000D02*
X136570000Y-86561000D01*
X136610000Y-81444000D02*
X136610000Y-82960000D01*
X136610000Y-85040000D02*
X136610000Y-86556000D01*
X136650000Y-81450000D02*
X136650000Y-82960000D01*
X136650000Y-85040000D02*
X136650000Y-86550000D01*
X136690000Y-81457000D02*
X136690000Y-82960000D01*
X136690000Y-85040000D02*
X136690000Y-86543000D01*
X136730000Y-81464000D02*
X136730000Y-82960000D01*
X136730000Y-85040000D02*
X136730000Y-86536000D01*
X136770000Y-81472000D02*
X136770000Y-82960000D01*
X136770000Y-85040000D02*
X136770000Y-86528000D01*
X136810000Y-81480000D02*
X136810000Y-82960000D01*
X136810000Y-85040000D02*
X136810000Y-86520000D01*
X136850000Y-81489000D02*
X136850000Y-82960000D01*
X136850000Y-85040000D02*
X136850000Y-86511000D01*
X136890000Y-81499000D02*
X136890000Y-82960000D01*
X136890000Y-85040000D02*
X136890000Y-86501000D01*
X136930000Y-81509000D02*
X136930000Y-82960000D01*
X136930000Y-85040000D02*
X136930000Y-86491000D01*
X136971000Y-81520000D02*
X136971000Y-82960000D01*
X136971000Y-85040000D02*
X136971000Y-86480000D01*
X137011000Y-81532000D02*
X137011000Y-82960000D01*
X137011000Y-85040000D02*
X137011000Y-86468000D01*
X137051000Y-81545000D02*
X137051000Y-82960000D01*
X137051000Y-85040000D02*
X137051000Y-86455000D01*
X137091000Y-81558000D02*
X137091000Y-82960000D01*
X137091000Y-85040000D02*
X137091000Y-86442000D01*
X137131000Y-81572000D02*
X137131000Y-82960000D01*
X137131000Y-85040000D02*
X137131000Y-86428000D01*
X137171000Y-81586000D02*
X137171000Y-82960000D01*
X137171000Y-85040000D02*
X137171000Y-86414000D01*
X137211000Y-81602000D02*
X137211000Y-82960000D01*
X137211000Y-85040000D02*
X137211000Y-86398000D01*
X137251000Y-81618000D02*
X137251000Y-82960000D01*
X137251000Y-85040000D02*
X137251000Y-86382000D01*
X137291000Y-81635000D02*
X137291000Y-82960000D01*
X137291000Y-85040000D02*
X137291000Y-86365000D01*
X137331000Y-81652000D02*
X137331000Y-82960000D01*
X137331000Y-85040000D02*
X137331000Y-86348000D01*
X137371000Y-81671000D02*
X137371000Y-82960000D01*
X137371000Y-85040000D02*
X137371000Y-86329000D01*
X137411000Y-81690000D02*
X137411000Y-82960000D01*
X137411000Y-85040000D02*
X137411000Y-86310000D01*
X137451000Y-81710000D02*
X137451000Y-82960000D01*
X137451000Y-85040000D02*
X137451000Y-86290000D01*
X137491000Y-81732000D02*
X137491000Y-82960000D01*
X137491000Y-85040000D02*
X137491000Y-86268000D01*
X137531000Y-81753000D02*
X137531000Y-82960000D01*
X137531000Y-85040000D02*
X137531000Y-86247000D01*
X137571000Y-81776000D02*
X137571000Y-82960000D01*
X137571000Y-85040000D02*
X137571000Y-86224000D01*
X137611000Y-81800000D02*
X137611000Y-82960000D01*
X137611000Y-85040000D02*
X137611000Y-86200000D01*
X137651000Y-81825000D02*
X137651000Y-82960000D01*
X137651000Y-85040000D02*
X137651000Y-86175000D01*
X137691000Y-81851000D02*
X137691000Y-82960000D01*
X137691000Y-85040000D02*
X137691000Y-86149000D01*
X137731000Y-81878000D02*
X137731000Y-82960000D01*
X137731000Y-85040000D02*
X137731000Y-86122000D01*
X137771000Y-81905000D02*
X137771000Y-82960000D01*
X137771000Y-85040000D02*
X137771000Y-86095000D01*
X137811000Y-81935000D02*
X137811000Y-82960000D01*
X137811000Y-85040000D02*
X137811000Y-86065000D01*
X137851000Y-81965000D02*
X137851000Y-82960000D01*
X137851000Y-85040000D02*
X137851000Y-86035000D01*
X137891000Y-81996000D02*
X137891000Y-82960000D01*
X137891000Y-85040000D02*
X137891000Y-86004000D01*
X137931000Y-82029000D02*
X137931000Y-82960000D01*
X137931000Y-85040000D02*
X137931000Y-85971000D01*
X137971000Y-82063000D02*
X137971000Y-82960000D01*
X137971000Y-85040000D02*
X137971000Y-85937000D01*
X138011000Y-82099000D02*
X138011000Y-82960000D01*
X138011000Y-85040000D02*
X138011000Y-85901000D01*
X138051000Y-82136000D02*
X138051000Y-82960000D01*
X138051000Y-85040000D02*
X138051000Y-85864000D01*
X138091000Y-82174000D02*
X138091000Y-82960000D01*
X138091000Y-85040000D02*
X138091000Y-85826000D01*
X138131000Y-82215000D02*
X138131000Y-82960000D01*
X138131000Y-85040000D02*
X138131000Y-85785000D01*
X138171000Y-82257000D02*
X138171000Y-82960000D01*
X138171000Y-85040000D02*
X138171000Y-85743000D01*
X138211000Y-82301000D02*
X138211000Y-82960000D01*
X138211000Y-85040000D02*
X138211000Y-85699000D01*
X138251000Y-82347000D02*
X138251000Y-82960000D01*
X138251000Y-85040000D02*
X138251000Y-85653000D01*
X138291000Y-82395000D02*
X138291000Y-82960000D01*
X138291000Y-85040000D02*
X138291000Y-85605000D01*
X138331000Y-82446000D02*
X138331000Y-82960000D01*
X138331000Y-85040000D02*
X138331000Y-85554000D01*
X138371000Y-82500000D02*
X138371000Y-82960000D01*
X138371000Y-85040000D02*
X138371000Y-85500000D01*
X138411000Y-82557000D02*
X138411000Y-82960000D01*
X138411000Y-85040000D02*
X138411000Y-85443000D01*
X138451000Y-82617000D02*
X138451000Y-82960000D01*
X138451000Y-85040000D02*
X138451000Y-85383000D01*
X138491000Y-82681000D02*
X138491000Y-82960000D01*
X138491000Y-85040000D02*
X138491000Y-85319000D01*
X138531000Y-82749000D02*
X138531000Y-82960000D01*
X138531000Y-85040000D02*
X138531000Y-85251000D01*
X138571000Y-82822000D02*
X138571000Y-85178000D01*
X138611000Y-82902000D02*
X138611000Y-85098000D01*
X138651000Y-82989000D02*
X138651000Y-85011000D01*
X138691000Y-83085000D02*
X138691000Y-84915000D01*
X138731000Y-83195000D02*
X138731000Y-84805000D01*
X138771000Y-83323000D02*
X138771000Y-84677000D01*
X138811000Y-83482000D02*
X138811000Y-84518000D01*
X138851000Y-83716000D02*
X138851000Y-84284000D01*
X138870000Y-84000000D02*
G75*
G03*
X133630000Y-84000000I-2620000J0D01*
G01*
X133630000Y-84000000D02*
G75*
G03*
X138870000Y-84000000I2620000J0D01*
G01*
X174370000Y-69370000D02*
X174370000Y-66630000D01*
X174370000Y-69370000D02*
X169130000Y-69370000D01*
X174370000Y-66630000D02*
X169130000Y-66630000D01*
X169130000Y-69370000D02*
X169130000Y-66630000D01*
X191000000Y-89960000D02*
X191000000Y-89190000D01*
X189630000Y-89190000D02*
X192370000Y-89190000D01*
X192370000Y-89190000D02*
X192370000Y-82650000D01*
X189630000Y-82650000D02*
X189630000Y-89190000D01*
X192370000Y-82650000D02*
X189630000Y-82650000D01*
X191000000Y-81880000D02*
X191000000Y-82650000D01*
X195330000Y-74616000D02*
X195330000Y-75946000D01*
X194000000Y-74616000D02*
X195330000Y-74616000D01*
X192730000Y-74616000D02*
X190130000Y-74616000D01*
X192730000Y-74616000D02*
X192730000Y-77276000D01*
X190130000Y-74616000D02*
X190130000Y-77276000D01*
X192730000Y-77276000D02*
X190130000Y-77276000D01*
X100473420Y-99578360D02*
X100473420Y-98248360D01*
X101803420Y-99578360D02*
X100473420Y-99578360D01*
X103073420Y-99578360D02*
X199653420Y-99578360D01*
X103073420Y-99578360D02*
X103073420Y-96918360D01*
X199653420Y-99578360D02*
X199653420Y-96918360D01*
X103073420Y-96918360D02*
X199653420Y-96918360D01*
X197000000Y-89960000D02*
X197000000Y-89190000D01*
X195630000Y-89190000D02*
X198370000Y-89190000D01*
X198370000Y-89190000D02*
X198370000Y-82650000D01*
X195630000Y-82650000D02*
X195630000Y-89190000D01*
X198370000Y-82650000D02*
X195630000Y-82650000D01*
X197000000Y-81880000D02*
X197000000Y-82650000D01*
X185000000Y-62120000D02*
X185000000Y-61350000D01*
X183630000Y-61350000D02*
X186370000Y-61350000D01*
X186370000Y-61350000D02*
X186370000Y-54810000D01*
X183630000Y-54810000D02*
X183630000Y-61350000D01*
X186370000Y-54810000D02*
X183630000Y-54810000D01*
X185000000Y-54040000D02*
X185000000Y-54810000D01*
X141113420Y-97038360D02*
X141113420Y-95708360D01*
X142443420Y-97038360D02*
X141113420Y-97038360D01*
X143713420Y-97038360D02*
X192033420Y-97038360D01*
X143713420Y-97038360D02*
X143713420Y-94378360D01*
X192033420Y-97038360D02*
X192033420Y-94378360D01*
X143713420Y-94378360D02*
X192033420Y-94378360D01*
X166670000Y-70610000D02*
X166670000Y-91170000D01*
X166670000Y-91170000D02*
X176950000Y-91170000D01*
X169160000Y-70670000D02*
X169160000Y-91110000D01*
X169160000Y-91110000D02*
X174460000Y-91110000D01*
X170810000Y-70670000D02*
X169160000Y-70670000D01*
X174460000Y-70670000D02*
X172810000Y-70670000D01*
X174460000Y-91110000D02*
X174460000Y-70670000D01*
X176950000Y-70610000D02*
X166670000Y-70610000D01*
X176950000Y-91170000D02*
X176950000Y-70610000D01*
X170810000Y-70670000D02*
G75*
G03*
X172810000Y-70670000I1000000J0D01*
G01*
X122050000Y-74530000D02*
X122050000Y-95090000D01*
X122050000Y-95090000D02*
X132330000Y-95090000D01*
X124540000Y-74590000D02*
X124540000Y-95030000D01*
X124540000Y-95030000D02*
X129840000Y-95030000D01*
X126190000Y-74590000D02*
X124540000Y-74590000D01*
X129840000Y-74590000D02*
X128190000Y-74590000D01*
X129840000Y-95030000D02*
X129840000Y-74590000D01*
X132330000Y-74530000D02*
X122050000Y-74530000D01*
X132330000Y-95090000D02*
X132330000Y-74530000D01*
X126190000Y-74590000D02*
G75*
G03*
X128190000Y-74590000I1000000J0D01*
G01*
%LPC*%
D15*
X124340000Y-64460000D03*
D16*
X141000000Y-67000000D03*
D17*
X141000000Y-64460000D03*
X141000000Y-61920000D03*
D18*
X137200000Y-91000000D03*
D19*
X135200000Y-91000000D03*
D18*
X135400000Y-77000000D03*
D19*
X137400000Y-77000000D03*
D18*
X118000000Y-84000000D03*
D19*
X118000000Y-86000000D03*
D18*
X118000000Y-76000000D03*
D19*
X118000000Y-78000000D03*
D20*
X126900000Y-53750000D03*
X139100000Y-53750000D03*
D21*
X129000000Y-55000000D03*
X131000000Y-55000000D03*
X133000000Y-55000000D03*
X137000000Y-55000000D03*
X129000000Y-52500000D03*
X131000000Y-52500000D03*
X133000000Y-52500000D03*
X137000000Y-52500000D03*
D22*
X182000000Y-80840000D03*
D23*
X182000000Y-91000000D03*
D22*
X194000000Y-91000000D03*
D23*
X194000000Y-80840000D03*
D24*
X194818000Y-56896000D03*
D25*
X194818000Y-59436000D03*
X194818000Y-61976000D03*
X194818000Y-64516000D03*
X194818000Y-67056000D03*
X194818000Y-69596000D03*
D22*
X159000000Y-68000000D03*
X156500000Y-68000000D03*
D26*
X147000000Y-68000000D03*
D22*
X147000000Y-65500000D03*
X185000000Y-91000000D03*
D23*
X185000000Y-80840000D03*
D22*
X188000000Y-91000000D03*
D23*
X188000000Y-80840000D03*
D24*
X175000000Y-62000000D03*
D25*
X177540000Y-62000000D03*
X175000000Y-59460000D03*
X177540000Y-59460000D03*
X175000000Y-56920000D03*
X177540000Y-56920000D03*
X175000000Y-54380000D03*
X177540000Y-54380000D03*
D27*
X112694831Y-59826560D03*
X117651650Y-54869742D03*
D28*
X111818019Y-57181981D03*
X115000000Y-54000000D03*
D26*
X154000000Y-72000000D03*
D23*
X154000000Y-74540000D03*
X154000000Y-77080000D03*
X154000000Y-79620000D03*
X154000000Y-82160000D03*
X154000000Y-84700000D03*
X154000000Y-87240000D03*
X154000000Y-89780000D03*
X161620000Y-89780000D03*
X161620000Y-87240000D03*
X161620000Y-84700000D03*
X161620000Y-82160000D03*
X161620000Y-79620000D03*
X161620000Y-77080000D03*
X161620000Y-74540000D03*
X161620000Y-72000000D03*
D22*
X170080000Y-54000000D03*
D23*
X159920000Y-54000000D03*
D22*
X170080000Y-57000000D03*
D23*
X159920000Y-57000000D03*
D26*
X147000000Y-59000000D03*
D22*
X147000000Y-61500000D03*
D29*
X109010331Y-67927000D03*
X109010331Y-92927000D03*
D26*
X110430331Y-85967000D03*
D22*
X110430331Y-83197000D03*
X110430331Y-80427000D03*
X110430331Y-77657000D03*
X110430331Y-74887000D03*
X107590331Y-84582000D03*
X107590331Y-81812000D03*
X107590331Y-79042000D03*
X107590331Y-76272000D03*
X182000000Y-53000000D03*
D23*
X182000000Y-63160000D03*
D22*
X128500000Y-72000000D03*
X126000000Y-72000000D03*
D26*
X135000000Y-84000000D03*
D22*
X137500000Y-84000000D03*
X173000000Y-68000000D03*
X170500000Y-68000000D03*
X191000000Y-91000000D03*
D23*
X191000000Y-80840000D03*
D24*
X194000000Y-75946000D03*
D25*
X191460000Y-75946000D03*
D24*
X101803420Y-98248360D03*
D25*
X104343420Y-98248360D03*
X106883420Y-98248360D03*
X109423420Y-98248360D03*
X111963420Y-98248360D03*
X114503420Y-98248360D03*
X117043420Y-98248360D03*
X119583420Y-98248360D03*
X122123420Y-98248360D03*
X124663420Y-98248360D03*
X127203420Y-98248360D03*
X129743420Y-98248360D03*
X132283420Y-98248360D03*
X134823420Y-98248360D03*
X137363420Y-98248360D03*
X139903420Y-98248360D03*
X142443420Y-98248360D03*
X144983420Y-98248360D03*
X147523420Y-98248360D03*
X150063420Y-98248360D03*
X152603420Y-98248360D03*
X155143420Y-98248360D03*
X157683420Y-98248360D03*
X160223420Y-98248360D03*
X162763420Y-98248360D03*
X165303420Y-98248360D03*
X167843420Y-98248360D03*
X170383420Y-98248360D03*
X172923420Y-98248360D03*
X175463420Y-98248360D03*
X178003420Y-98248360D03*
X180543420Y-98248360D03*
X183083420Y-98248360D03*
X185623420Y-98248360D03*
X188163420Y-98248360D03*
X190703420Y-98248360D03*
X193243420Y-98248360D03*
X195783420Y-98248360D03*
X198323420Y-98248360D03*
D22*
X197000000Y-91000000D03*
D23*
X197000000Y-80840000D03*
D22*
X185000000Y-63160000D03*
D23*
X185000000Y-53000000D03*
D24*
X142443420Y-95708360D03*
D25*
X144983420Y-95708360D03*
X147523420Y-95708360D03*
X150063420Y-95708360D03*
X152603420Y-95708360D03*
X155143420Y-95708360D03*
X157683420Y-95708360D03*
X160223420Y-95708360D03*
X162763420Y-95708360D03*
X165303420Y-95708360D03*
X167843420Y-95708360D03*
X170383420Y-95708360D03*
X172923420Y-95708360D03*
X175463420Y-95708360D03*
X178003420Y-95708360D03*
X180543420Y-95708360D03*
X183083420Y-95708360D03*
X185623420Y-95708360D03*
X188163420Y-95708360D03*
X190703420Y-95708360D03*
D26*
X168000000Y-72000000D03*
D23*
X168000000Y-74540000D03*
X168000000Y-77080000D03*
X168000000Y-79620000D03*
X168000000Y-82160000D03*
X168000000Y-84700000D03*
X168000000Y-87240000D03*
X168000000Y-89780000D03*
X175620000Y-89780000D03*
X175620000Y-87240000D03*
X175620000Y-84700000D03*
X175620000Y-82160000D03*
X175620000Y-79620000D03*
X175620000Y-77080000D03*
X175620000Y-74540000D03*
X175620000Y-72000000D03*
D26*
X123380000Y-75920000D03*
D23*
X123380000Y-78460000D03*
X123380000Y-81000000D03*
X123380000Y-83540000D03*
X123380000Y-86080000D03*
X123380000Y-88620000D03*
X123380000Y-91160000D03*
X123380000Y-93700000D03*
X131000000Y-93700000D03*
X131000000Y-91160000D03*
X131000000Y-88620000D03*
X131000000Y-86080000D03*
X131000000Y-83540000D03*
X131000000Y-81000000D03*
X131000000Y-78460000D03*
X131000000Y-75920000D03*
%LPD*%
M02*
