M48
; DRILL file {KiCad 7.0.11+dfsg-1build4} date Tue 10 Jun 2025 05:17:41 PM
; FORMAT={-:-/ absolute / metric / decimal}
; #@! TF.CreationDate,2025-06-10T17:17:41-04:00
; #@! TF.GenerationSoftware,Kicad,Pcbnew,7.0.11+dfsg-1build4
; #@! TF.FileFunction,Plated,1,2,PTH
FMAT,2
METRIC
; #@! TA.AperFunction,Plated,PTH,ViaDrill
T1C0.400
; #@! TA.AperFunction,Plated,PTH,ComponentDrill
T2C0.600
; #@! TA.AperFunction,Plated,PTH,ComponentDrill
T3C0.800
; #@! TA.AperFunction,Plated,PTH,ComponentDrill
T4C0.990
; #@! TA.AperFunction,Plated,PTH,ComponentDrill
T5C1.000
; #@! TA.AperFunction,Plated,PTH,ComponentDrill
T6C1.100
; #@! TA.AperFunction,Plated,PTH,ComponentDrill
T7C1.200
; #@! TA.AperFunction,Plated,PTH,ComponentDrill
T8C1.300
; #@! TA.AperFunction,Plated,PTH,ComponentDrill
T9C3.200
%
G90
G05
T1
X127.0Y-81.0
X127.0Y-87.0
X134.0Y-87.0
X140.0Y-59.0
X152.0Y-62.0
X154.0Y-64.0
X159.0Y-80.0
X164.0Y-93.0
X165.0Y-86.0
X166.0Y-62.0
X168.0Y-63.0
X178.0Y-67.0
X179.0Y-65.0
X179.0Y-82.0
T2
X118.0Y-76.0
X118.0Y-78.0
X118.0Y-84.0
X118.0Y-86.0
X135.2Y-91.0
X135.4Y-77.0
X137.2Y-91.0
X137.4Y-77.0
T3
X123.38Y-75.92
X123.38Y-78.46
X123.38Y-81.0
X123.38Y-83.54
X123.38Y-86.08
X123.38Y-88.62
X123.38Y-91.16
X123.38Y-93.7
X126.0Y-72.0
X128.5Y-72.0
X129.0Y-52.5
X129.0Y-55.0
X131.0Y-52.5
X131.0Y-55.0
X131.0Y-75.92
X131.0Y-78.46
X131.0Y-81.0
X131.0Y-83.54
X131.0Y-86.08
X131.0Y-88.62
X131.0Y-91.16
X131.0Y-93.7
X133.0Y-52.5
X133.0Y-55.0
X135.0Y-84.0
X137.0Y-52.5
X137.0Y-55.0
X137.5Y-84.0
X147.0Y-59.0
X147.0Y-61.5
X147.0Y-65.5
X147.0Y-68.0
X154.0Y-72.0
X154.0Y-74.54
X154.0Y-77.08
X154.0Y-79.62
X154.0Y-82.16
X154.0Y-84.7
X154.0Y-87.24
X154.0Y-89.78
X156.5Y-68.0
X159.0Y-68.0
X159.92Y-54.0
X159.92Y-57.0
X161.62Y-72.0
X161.62Y-74.54
X161.62Y-77.08
X161.62Y-79.62
X161.62Y-82.16
X161.62Y-84.7
X161.62Y-87.24
X161.62Y-89.78
X168.0Y-72.0
X168.0Y-74.54
X168.0Y-77.08
X168.0Y-79.62
X168.0Y-82.16
X168.0Y-84.7
X168.0Y-87.24
X168.0Y-89.78
X170.08Y-54.0
X170.08Y-57.0
X170.5Y-68.0
X173.0Y-68.0
X175.62Y-72.0
X175.62Y-74.54
X175.62Y-77.08
X175.62Y-79.62
X175.62Y-82.16
X175.62Y-84.7
X175.62Y-87.24
X175.62Y-89.78
X182.0Y-53.0
X182.0Y-63.16
X182.0Y-80.84
X182.0Y-91.0
X185.0Y-53.0
X185.0Y-63.16
X185.0Y-80.84
X185.0Y-91.0
X188.0Y-80.84
X188.0Y-91.0
X191.0Y-80.84
X191.0Y-91.0
X194.0Y-80.84
X194.0Y-91.0
X197.0Y-80.84
X197.0Y-91.0
T4
X111.818Y-57.182
X115.0Y-54.0
T5
X101.803Y-98.248
X104.343Y-98.248
X106.883Y-98.248
X107.59Y-76.272
X107.59Y-79.042
X107.59Y-81.812
X107.59Y-84.582
X109.423Y-98.248
X110.43Y-74.887
X110.43Y-77.657
X110.43Y-80.427
X110.43Y-83.197
X110.43Y-85.967
X111.963Y-98.248
X114.503Y-98.248
X117.043Y-98.248
X119.583Y-98.248
X122.123Y-98.248
X124.663Y-98.248
X127.203Y-98.248
X129.743Y-98.248
X132.283Y-98.248
X134.823Y-98.248
X137.363Y-98.248
X139.903Y-98.248
X142.443Y-95.708
X142.443Y-98.248
X144.983Y-95.708
X144.983Y-98.248
X147.523Y-95.708
X147.523Y-98.248
X150.063Y-95.708
X150.063Y-98.248
X152.603Y-95.708
X152.603Y-98.248
X155.143Y-95.708
X155.143Y-98.248
X157.683Y-95.708
X157.683Y-98.248
X160.223Y-95.708
X160.223Y-98.248
X162.763Y-95.708
X162.763Y-98.248
X165.303Y-95.708
X165.303Y-98.248
X167.843Y-95.708
X167.843Y-98.248
X170.383Y-95.708
X170.383Y-98.248
X172.923Y-95.708
X172.923Y-98.248
X175.0Y-54.38
X175.0Y-56.92
X175.0Y-59.46
X175.0Y-62.0
X175.463Y-95.708
X175.463Y-98.248
X177.54Y-54.38
X177.54Y-56.92
X177.54Y-59.46
X177.54Y-62.0
X178.003Y-95.708
X178.003Y-98.248
X180.543Y-95.708
X180.543Y-98.248
X183.083Y-95.708
X183.083Y-98.248
X185.623Y-95.708
X185.623Y-98.248
X188.163Y-95.708
X188.163Y-98.248
X190.703Y-95.708
X190.703Y-98.248
X191.46Y-75.946
X193.243Y-98.248
X194.0Y-75.946
X194.818Y-56.896
X194.818Y-59.436
X194.818Y-61.976
X194.818Y-64.516
X194.818Y-67.056
X194.818Y-69.596
X195.783Y-98.248
X198.323Y-98.248
T6
X141.0Y-61.92
X141.0Y-64.46
X141.0Y-67.0
T7
X126.9Y-53.75
X139.1Y-53.75
T8
X112.695Y-59.827
X117.652Y-54.87
T9
X109.01Y-67.927
X109.01Y-92.927
M30
